<svg xmlns="http://www.w3.org/2000/svg" width="600" height="500" viewBox="0 0 600 500">
  <defs>
    <style>
      .cls-1 {
        fill: #7756b0;
        fill-rule: evenodd;
      }
    </style>
  </defs>
  <path id="liga-f-8m" class="cls-1" d="M343,36.093c-6.533-.113-13.036-0.05-19.479.255C262,39.263,202.915,57.284,155.479,85.894c10.476,25.62,15.586,56.536,14.334,86.035q7.821-1.681,15.928-2.746c0.075-.195.145-0.387,0.22-0.582C211.36,102.592,267.951,55.186,343,36.093M245.544,168.517c40.62,3.974,80.045,16.088,107.554,31.782,5.441,3.1,11.5,2.254,17.586-1.024l42.8-24.236A8.073,8.073,0,0,0,413.544,161c-19.19-10.865-45.544-21.7-73.371-30.124a67.681,67.681,0,0,0-28.022-2.458,137.016,137.016,0,0,0-20.835,4.239c-16.832,5.288-33.375,18.271-45.772,35.859m-149.3-6.75c6.46-14.424,8.355-25.132,8.336-36.611C77.414,152.231,58.8,184.2,52.5,219.222c19.487-16.492,33.855-35.366,43.75-57.455m48.908-69.41q-7.041,4.649-13.677,9.623a37.155,37.155,0,0,0-15.029,28.156c-0.018.466-.04,0.913-0.065,1.338-0.643,10.722-3.128,21.614-9.2,35.18-10.767,24.035-26.4,44.5-47.63,62.3l-0.076.064a25.629,25.629,0,0,0-9.289,20.194c0.6,25.511,7.707,52.258,22.659,79.637,1.622,2.971,5.194,4.847,9.065,4.847H98.061c2.54,0,4.245-2.188,3.236-4.157-8.192-16-34.752-74.7-6.634-114.018a103.858,103.858,0,0,1,8.753-9.959c1.617-1.5,3.1-2.9,4.469-4.221,13.8-12.3,30.9-20.835,49.772-26.326,1.732-28.15-2.766-57.909-12.5-82.654m401.383,2.161C509.427,73.18,462.166,54.436,412.985,44.224a127.635,127.635,0,0,0-44.62-1.255c-0.815.121-1.23,0.191-1.26,0.2C287.422,56.947,226.558,102.246,199.2,167.808a264.441,264.441,0,0,1,32.66-.316c0.442-.71.877-1.4,1.3-2.045,14.1-21.628,34.041-37.755,54.71-44.247,2.095-.6,4.154-1.124,6.193-1.616a267.676,267.676,0,0,0-40.04-4.53,1.914,1.914,0,0,1-.247-3.806c68.995-10.229,146.433,9.373,202.23,39.179,5.447,2.911,10.1,3.114,15.356.173l75.058-41.989a8.094,8.094,0,0,0,.12-14.093M157.3,315.072h43.231v18.649H137.436V234.659H157.3v80.413Zm75.459-68.706a12.132,12.132,0,0,1-16.774,0,11.756,11.756,0,0,1,0-16.545,12.132,12.132,0,0,1,16.774,0,11.752,11.752,0,0,1,0,16.545m-17.72,14.162h18.669v73.193H215.036V260.528Zm82.375,73.193q10.947,0,18.211,5.715t9.089,15.809l-19.3,5.187a8.822,8.822,0,0,0-3.58-6.38,13.029,13.029,0,0,0-8.071-2.384h-24q-10.247,0-16.456-5.4a17.858,17.858,0,0,1-6.211-14.162,21.844,21.844,0,0,1,2.7-10.586,20.456,20.456,0,0,1,7.193-7.782,29.888,29.888,0,0,1-9.755-22.785,30.22,30.22,0,0,1,9.79-23q9.791-9.183,24.528-9.184a38.018,38.018,0,0,1,16,3.436,15.988,15.988,0,0,1,6.632-9.36,21.207,21.207,0,0,1,12.177-3.4H322.4V266.7H317.2a8.493,8.493,0,0,0-4.878,1.4,5.88,5.88,0,0,0-2.562,3.857,31.6,31.6,0,0,1-3.579,41.924q-9.9,9.184-24.633,9.184a41.564,41.564,0,0,1-12.071-1.822,7.006,7.006,0,0,0-3.72,6.309,5.441,5.441,0,0,0,2.176,4.417,8.664,8.664,0,0,0,5.615,1.753h23.861ZM281.55,276.443a15.137,15.137,0,0,0-10.913,4.136,14.63,14.63,0,0,0,0,20.752,16.416,16.416,0,0,0,21.791,0,14.545,14.545,0,0,0,0-20.752,15.165,15.165,0,0,0-10.878-4.136m105.113-15.915h18.668v73.193H386.663v-8.764A31.023,31.023,0,0,1,362.8,335.474a33.462,33.462,0,0,1-25.546-11.008q-10.248-11.005-10.246-27.341t10.246-27.342A33.461,33.461,0,0,1,362.8,258.776a30.975,30.975,0,0,1,23.861,10.446v-8.694Zm-20.282,56.858a20.263,20.263,0,1,0,0-40.523,19.406,19.406,0,0,0-14.387,5.819,21,21,0,0,0,0,28.885,19.406,19.406,0,0,0,14.387,5.819m148.63-64.079h-44.7V275.6h38.95V294.25h-38.95v39.471H450.445V234.658h64.566v18.649ZM51.337,424.983H59.17l10.189,30.042,10.189-30.042h7.724l-13.64,38.305H65.087Zm39.056,27.361a8.943,8.943,0,0,1,7.012-8.92c-4.163-.93-6.573-4.049-6.573-8.591,0-6.457,5.533-10.561,14.517-10.561,8.764,0,14.516,4.213,14.516,10.561,0,4.542-2.41,7.661-6.573,8.591a8.942,8.942,0,0,1,7.011,8.92c0,7.114-5.751,11.656-14.954,11.656C95.981,464,90.393,459.622,90.393,452.344Zm14.955,3.393c3.287,0,5.477-1.533,5.477-4.1,0-2.627-2.136-4.16-5.477-4.16-3.4,0-5.478,1.533-5.478,4.16C99.87,454.2,102.061,455.737,105.348,455.737Zm0-15.87c3.122,0,5.039-1.422,5.039-3.666,0-2.3-1.917-3.666-5.039-3.666s-5.04,1.368-5.04,3.666S102.225,439.867,105.348,439.867Zm21.2-14.884H139.8l8.71,25.118,8.71-25.118h13.256v38.305h-9.312V438.17l-9.039,25.118H144.9l-9.039-25.118v25.118h-9.312V424.983Zm50.341,19.153c0-11.382,8.49-19.809,19.884-19.809s19.83,8.481,19.83,19.809-8.436,19.81-19.83,19.81S176.887,455.518,176.887,444.136Zm19.884,12.695c7.231,0,12.325-5.253,12.325-12.695s-5.094-12.7-12.325-12.7-12.38,5.253-12.38,12.7S189.54,456.831,196.771,456.831Zm24.046-5.034,6.957-1.368c0.383,4.378,3.67,7.059,8.655,7.059,4.053,0,6.409-1.861,6.409-4.925,0-2.3-1.589-3.775-4.766-4.487l-5.477-1.15c-6.738-1.313-10.189-5.088-10.189-11.109,0-6.675,5.587-11.49,13.475-11.49,7.614,0,12.38,3.393,14.023,9.849l-6.847,2.189c-0.657-3.447-3.451-5.582-7.176-5.582-3.944,0-6.08,1.7-6.08,4.816,0,2.3,1.369,3.776,4.218,4.378l5.477,1.094c7.177,1.477,10.737,5.2,10.737,11.219,0,6.949-5.587,11.656-13.8,11.656C227.555,463.946,221.748,459.458,220.817,451.8Zm47.053-7.661c0-11.382,8.49-19.809,19.939-19.809,8.326,0,15.228,4.267,17.474,10.889l-6.792,3.338c-1.534-4.378-5.643-7.114-10.682-7.114-7.286,0-12.435,5.253-12.435,12.7,0,7.825,5.04,12.914,12.763,12.914,4,0,7.067-.766,9.149-2.243v-6.458h-9.532v-6.457h16.434v16.745c-4,3.448-9.587,5.309-16.051,5.309C276.306,463.946,267.87,455.682,267.87,444.136ZM323.3,424.983h8.546l14.242,38.305h-7.778l-3.342-9.412H320.127l-3.341,9.412h-7.724Zm9.258,22.217-5.039-14.228-5.04,14.228h10.079Zm19.281-22.217h7.833l16.543,26.431V424.983h7.286v38.305h-7.833l-16.544-26.431v26.431h-7.285V424.983Zm51.654,0h8.546l14.242,38.305h-7.778l-3.342-9.412H400.32l-3.341,9.412h-7.724Zm9.258,22.217-5.039-14.228-5.04,14.228h10.079Zm19.28-22.217h7.834l16.543,26.431V424.983H463.7v38.305h-7.833l-16.543-26.431v26.431h-7.286V424.983Zm40.864,0h13.366c11.832,0,19.5,7.5,19.5,18.988,0,11.766-7.669,19.317-19.5,19.317H472.9V424.983Zm13.366,31.41c7.394,0,12-4.76,12-12.422,0-7.442-4.6-12.093-12-12.093h-6.081v24.515h6.081Zm23.773-12.257c0-11.382,8.49-19.809,19.884-19.809s19.83,8.481,19.83,19.809-8.436,19.81-19.83,19.81S510.038,455.518,510.038,444.136Zm19.884,12.695c7.231,0,12.325-5.253,12.325-12.695s-5.094-12.7-12.325-12.7-12.38,5.253-12.38,12.7S522.691,456.831,529.922,456.831Z"/>
</svg>
