<svg data-name="Capa 2" viewBox="0 0 273.72 370.48" xmlns="http://www.w3.org/2000/svg"><defs><style>.cls-1{fill:#691ec8}</style></defs><g data-name="Capa 2"><path class="cls-1" d="M261.68 124.33C261.68 55.81 205.67 0 136.86 0S12.04 55.81 12.04 124.33s56 124.39 124.82 124.39 124.82-55.81 124.82-124.39ZM136.86 234.95c-61.06 0-110.99-49.79-110.99-110.62S75.8 13.78 136.86 13.78 247.85 63.5 247.85 124.33s-49.93 110.62-110.99 110.62Z"/><path class="cls-1" d="M131.29 104c0-4.97-3.16-7.51-9.49-7.51h-14.14v22.11h5.47v-7.03h8.36l4.18 7.03h6.59l-4.98-7.86c2.68-1.36 4.02-3.6 4.02-6.74zm-5.46 0c0 1.83-1.5 2.72-4.5 2.72h-8.2v-5.56h8.52c2.78 0 4.18.95 4.18 2.84zm5.63 26.3v4.61h-18.01v3.85h15.75v4.49h-15.75v4.32h18.17v4.84l-23.96-.06V130.3zm12.85-33.82h22.99v4.67h-17.2v4.14h15.43v4.67H150.1v8.64h-5.79zm0 33.82h22.99v4.61h-17.2v4.2h15.43v4.61H150.1v8.69h-5.79z"/><path class="cls-1" d="M116.48 75.62c6.37-2.72 13.2-4.08 20.49-4.08s14.12 1.36 20.5 4.08c6.37 2.72 12 6.5 16.88 11.41 4.87 4.85 8.68 10.47 11.41 16.79 2.73 6.33 4.1 13.19 4.1 20.4s-1.36 14.07-4.1 20.46c-2.73 6.33-6.54 11.95-11.41 16.79-4.88 4.85-10.5 8.69-16.88 11.41s-13.21 4.08-20.5 4.08-14.12-1.36-20.49-4.08c-6.38-2.78-12-6.57-16.88-11.41s-8.68-10.46-11.41-16.79c-2.73-6.39-4.1-13.18-4.1-20.46s1.36-14.07 4.1-20.4c2.73-6.32 6.54-11.94 11.41-16.79 4.87-4.91 10.49-8.69 16.88-11.41Zm110.89 91.52a99.559 99.559 0 0 0 8.73-29.38l-39.71-11.29c.03-.77.05-1.48.05-2.25 0-4.96-.58-9.69-1.71-14.31h41.23a98.622 98.622 0 0 0-10.68-32.46l-86.97-24.71h68.28c-18.04-17.44-42.62-28.2-69.74-28.2-30.76 0-58.27 13.84-76.64 35.59l46.43 13.18a58.709 58.709 0 0 0-10.77 8.16h-49.5c-4.36 9.1-7.35 19.04-8.76 29.39l39.93 11.41c-.02.65-.05 1.3-.05 1.95 0 5.02.6 9.81 1.76 14.49H37.72a98.986 98.986 0 0 0 10.63 32.4l87.01 24.77H67c18.05 17.5 42.68 28.32 69.85 28.32 30.8 0 58.34-13.9 76.71-35.65l-46.47-13.24c3.94-2.3 7.55-5.02 10.87-8.16h49.42Z"/><path d="M0 369.87v-23.38h24.29v5.02H5.87v4.41h16.65v4.8H5.87v9.15zm45.44-23.38h5.88v10.64c0 2.81.7 4.85 2.09 6.23 1.39 1.43 3.47 2.1 6.23 2.1h.13c2.72 0 4.77-.66 6.14-2.1 1.38-1.38 2.06-3.47 2.06-6.23v-10.64h5.88v10.31c0 4.52-1.17 7.94-3.52 10.26-2.35 2.26-5.86 3.42-10.54 3.42h-.13c-4.72 0-8.28-1.16-10.65-3.42s-3.56-5.68-3.56-10.26v-10.31h-.01Zm58.97 23.38v-18.36H93.66v-5.02h27.36v5.02h-10.74v18.36zm37.09 0v-23.38h24.29v5.02h-18.42v4.41h16.65v4.8h-16.65v9.15zm46.1-23.38h25.26v5.02h-19.39v4.03h16.97v4.79h-16.97v4.58h19.58v4.96h-25.46v-23.38zm60.82 23.38-3.49-17.7-.36-3.25h-.27l-.42 3.25-3.72 17.7h-5.85l5.09-23.38h10.32l3.76 18.36.22 2.59h.27l.23-2.59 3.75-18.36h10.32l5.06 23.38h-6.01l-3.76-17.7-.42-3.25h-.26l-.36 3.25-3.49 17.7z" style="fill:#ff5b0c"/><path class="cls-1" d="M20.23 278.12H8.22v8.27h11.55c2.13 0 3.69-.28 4.68-.88.99-.61 1.49-1.6 1.49-2.92v-.66c0-1.33-.44-2.32-1.33-2.92-.88-.61-2.35-.88-4.38-.88Zm1.14 15.27H8.22v10.48H0v-32.75h21.37c4.32 0 7.53.88 9.63 2.76 2.1 1.82 3.15 4.58 3.15 8.32v.33c0 3.69-1.05 6.4-3.15 8.22-2.1 1.76-5.31 2.64-9.63 2.64Zm46.33-1.16c1.94-.84 3.39-1.96 4.32-3.36 1.17-1.76 1.76-3.92 1.76-6.39v-.28c0-3.53-1.2-6.23-3.6-8.16s-5.93-2.92-10.55-2.92H38.72v32.75h8.22v-10.48h12.32l6.12 10.48h9.91l-7.58-11.65h-.01Zm-2.13-9.81c0 1.38-.54 2.38-1.6 3.04-1.07.6-2.74.94-5.03.94H46.93v-8.27H59.4c2.19 0 3.77.33 4.73.94.96.6 1.44 1.65 1.44 3.08v.27Zm13.47-11.31h8.22v32.76h-8.22zm33.28 32.76-4.88-24.81-.51-4.52h-.36l-.59 4.52-5.21 24.81H92.6l7.12-32.75h14.43l5.25 25.69.32 3.64h.36l.32-3.64 5.25-25.69h14.43l7.08 32.75h-8.41l-5.25-24.81-.59-4.52h-.36l-.5 4.52-4.89 24.81zm40.18-32.75h35.34v7h-27.12v5.63h23.74v6.72h-23.74v6.4h27.39v7H152.5zm69.8 21.11c1.94-.84 3.39-1.96 4.32-3.36 1.17-1.76 1.76-3.92 1.76-6.39v-.28c0-3.53-1.2-6.23-3.6-8.16-2.41-1.93-5.93-2.92-10.55-2.92h-20.91v32.75h8.22v-10.48h12.32l6.12 10.48h9.91l-7.58-11.65Zm-2.14-9.81c0 1.38-.53 2.38-1.6 3.04-1.06.6-2.74.94-5.02.94h-12.01v-8.27h12.46c2.19 0 3.76.33 4.72.94.96.6 1.44 1.65 1.44 3.08v.27Zm44.7 21.45h8.86l-15.02-32.75h-13.15l-15.03 32.75h8.31l2.59-5.85h20.86l2.58 5.85zm-20.67-12.08 6.51-14.67.87-2.48h.64l.87 2.48 6.46 14.67h-15.35zM0 315.45h20.68v4.3H5v3.75h14.17v4.08H5v7.83H0zm27.24 0h21.5v4.3h-16.5v3.42h14.45v4.08H32.24v3.86h16.67v4.3H27.24zm40.1 15.72c4.58 0 7.08-1.99 7.08-5.51v-.39c0-3.59-2.5-5.51-7.08-5.51h-6.36v11.42h6.36zm-11.31-15.72h11.86c7.45 0 11.53 3.47 11.53 9.82v.39c0 6.28-4.08 9.76-11.53 9.76H56.03v-19.96zm30.44 0h21.5v4.3h-16.5v3.42h14.45v4.08H91.47v3.86h16.67v4.3H86.47zm33.8 4.3v5.02h7.31c2.78 0 4.03-.77 4.03-2.43v-.17c0-1.76-1.08-2.42-3.74-2.42h-7.6Zm0 15.66h-5v-19.96h12.72c5.64 0 8.62 2.48 8.62 6.78v.16c0 2.7-1.06 4.8-3.67 5.9l4.58 7.11h-6.03l-3.72-6.4h-7.5v6.4Zm29.65-7.33h9.36l-3.95-8.93-.53-1.54h-.39l-.53 1.54-3.96 8.93Zm.83-12.63h8l9.14 19.96h-5.39l-1.58-3.59h-12.68l-1.58 3.59h-5.06l9.14-19.96h.01Zm43.42 12.85 3.08 3.25c-3 2.92-6.92 4.36-12.01 4.36h-.22c-8.08 0-13.61-4.24-13.61-10.36v-.22c0-6.18 5.53-10.36 13.61-10.36h.22c4.95 0 8.7 1.33 11.81 4.14l-3.06 3.25c-2.63-2.26-5.06-3.14-8.75-3.14h-.22c-5.2 0-8.62 2.43-8.62 6.12v.17c0 3.75 3.42 6.12 8.62 6.12h.22c3.48.06 6.51-1.1 8.93-3.31v-.02Zm9.37-12.83h5v19.94h-5zm32.05-7.68-4.51 4.58h-4.44l3.03-4.58h5.92Zm-15.12 17.59v.17c0 3.69 3.19 6.12 8.06 6.12h.22c4.87 0 8.06-2.43 8.06-6.12v-.17c0-3.69-3.19-6.12-8.06-6.12h-.22c-4.86 0-8.06 2.42-8.06 6.12Zm-5 .22v-.27c0-6.12 5.3-10.36 13.06-10.36h.22c7.75 0 13.06 4.19 13.06 10.31v.39c0 6.06-5.31 10.25-13.06 10.25h-.22c-7.76 0-13.06-4.19-13.06-10.31Zm57.36 9.81h-9.42l-8.14-15.05-1.3-2.82h-.23v17.87h-5v-19.96h9.42l8.14 15.05 1.3 2.82h.23v-17.87h5z"/></g></svg>