<?xml version="1.0" encoding="UTF-8" standalone="no"?>
<!-- Created with Inkscape (http://www.inkscape.org/) -->

<svg
   version="1.1"
   id="svg2"
   width="260.93027"
   height="248.24814"
   viewBox="0 0 260.93026 248.24814"
   sodipodi:docname="Copa-De-La-Reina-RFEF.ai"
   xmlns:inkscape="http://www.inkscape.org/namespaces/inkscape"
   xmlns:sodipodi="http://sodipodi.sourceforge.net/DTD/sodipodi-0.dtd"
   xmlns="http://www.w3.org/2000/svg"
   xmlns:svg="http://www.w3.org/2000/svg">
  <defs
     id="defs6">
    <clipPath
       clipPathUnits="userSpaceOnUse"
       id="clipPath30">
      <path
         d="M 0,220 H 220 V 0 H 0 Z"
         id="path28" />
    </clipPath>
    <clipPath
       clipPathUnits="userSpaceOnUse"
       id="clipPath42">
      <path
         d="m 107.054,198.849 c 0,-1.776 0.754,-3.293 1.823,-3.93 v 0 c -0.446,-2.94 -4.632,-5.554 -8.396,-7.115 v 0 c -2.325,-0.964 -5.116,-2.085 -5.926,-4.263 v 0 c -0.691,-1.852 0.628,-3.741 1.138,-5.472 v 0 c 0.181,-0.63 -0.133,-1.097 -1.018,-1.342 v 0 c -1.101,-0.308 -3.256,-0.73 -5.99,-1.625 v 0 c -3.142,-1.032 -5.392,-2.058 -5.881,-5.377 v 0 l -0.057,-0.415 c -0.258,-2.595 -0.372,-5.265 -0.372,-7.948 v 0 -0.736 c 0.139,-12.721 2.949,-25.674 6.159,-32.418 v 0 c 3.249,-6.813 8.798,-10.491 14.523,-12.55 v 0 l 0.076,-0.63 C 104.201,94.292 89.521,89.513 83.375,89.456 v 0 h -0.841 c 0.106,0 2.776,-2.097 2.776,-2.097 v 0 c 19.388,1.631 23.077,16.467 23.077,26.448 v 0 4.282 c 0,0 -11.362,0.705 -16.069,12.134 v 0 c -1.735,4.206 -2.269,7.337 -3.174,14.742 v 0 c -1.175,9.596 -0.71,20.119 -0.503,21.24 v 0 c 0.144,1.072 0.698,2.046 1.546,2.714 v 0 c 0.348,0.246 0.717,0.457 1.106,0.63 v 0 -0.045 l 0.157,0.07 h -0.125 l 0.069,0.032 c 1.753,0.66 4.657,1.259 6.196,1.768 v 0 c 3.815,1.191 5.367,3.779 2.608,8.76 v 0 l -0.05,0.095 c -0.321,0.667 0,1.121 0.534,1.485 v 0 c 0.648,0.355 1.325,0.654 2.023,0.895 v 0 c 3.652,1.442 6.989,3.533 7.271,11.927 v 0 c 0.283,-8.394 3.621,-10.485 7.272,-11.927 v 0 c 1.57,-0.63 3.261,-1.121 2.512,-2.475 v 0 c -2.758,-4.969 -1.206,-7.557 2.609,-8.76 v 0 c 1.54,-0.484 4.444,-1.108 6.196,-1.768 v 0 l 0.34,-0.146 0.383,-0.201 c 0.551,-0.318 1.02,-0.758 1.375,-1.287 v 0 c 0.354,-0.528 0.582,-1.13 0.668,-1.761 v 0 c 0.207,-1.12 0.672,-11.643 -0.503,-21.24 v 0 c -0.905,-7.406 -1.44,-10.535 -3.142,-14.742 v 0 C 122.979,118.8 111.617,118.095 111.617,118.095 v 0 -4.282 c 0,-9.993 3.688,-24.83 23.075,-26.448 v 0 c 0,0 2.659,2.094 2.778,2.097 v 0 h -0.822 c -6.153,0.057 -20.827,4.836 -19.752,25.572 v 0 0.63 c 5.737,2.06 11.311,5.737 14.567,12.55 v 0 c 3.947,8.3 7.295,26.007 5.788,41.096 v 0 c -0.371,3.652 -2.64,4.722 -5.939,5.792 v 0 c -2.734,0.895 -4.889,1.317 -5.989,1.625 v 0 c -0.886,0.245 -1.201,0.699 -1.019,1.342 v 0 c 0.491,1.731 1.83,3.62 1.138,5.472 v 0 c -0.81,2.178 -3.601,3.299 -5.926,4.263 v 0 c -3.771,1.561 -7.956,4.169 -8.415,7.104 v 0 c 1.075,0.629 1.842,2.152 1.842,3.941 v 0 c 0,2.342 -1.32,4.244 -2.941,4.244 v 0 c -1.621,0 -2.948,-1.889 -2.948,-4.244 M 71.366,182.684 c -5.091,-1.159 -9.018,-6.177 -9.697,-13.224 v 0 c -0.874,-9.067 2.074,-19.534 7.033,-26.699 v 0 C 78.9,128.045 87.196,126.068 87.196,126.068 v 0 l -0.534,1.259 c 0,0 -14.209,7.198 -19.268,28.525 v 0 c -4.022,16.946 1.955,20.592 4.431,20.642 v 0 c 0.49,0.035 0.98,-0.08 1.407,-0.327 v 0 c -0.169,-2.526 1.414,-4.678 3.544,-4.818 v 0 c 2.131,-0.138 4.029,1.807 4.167,4.326 v 0 c 0.044,0.934 -0.109,1.865 -0.451,2.734 v 0 c -0.342,0.869 -0.865,1.654 -1.535,2.305 v 0 c -0.996,0.943 -2.215,1.619 -3.542,1.963 v 0 c -0.668,0.174 -1.352,0.26 -2.037,0.26 v 0 c -0.676,0 -1.352,-0.084 -2.012,-0.253 m 73.22,-0.038 c -1.328,-0.345 -2.545,-1.021 -3.54,-1.964 v 0 c -0.671,-0.65 -1.195,-1.434 -1.539,-2.304 v 0 c -0.344,-0.868 -0.498,-1.801 -0.453,-2.734 v 0 c 0.138,-2.468 2.035,-4.401 4.167,-4.27 v 0 c 2.13,0.133 3.714,2.293 3.544,4.818 v 0 c 0.426,0.248 0.917,0.361 1.407,0.328 v 0 c 2.476,-0.051 8.453,-3.697 4.43,-20.643 v 0 c -5.058,-21.328 -19.267,-28.525 -19.267,-28.525 v 0 l -0.535,-1.259 c 0,0 8.303,1.919 18.496,16.636 v 0 c 4.957,7.167 7.905,17.632 7.032,26.7 v 0 c -0.679,7.047 -4.606,12.065 -9.697,13.224 v 0 c -0.658,0.169 -1.333,0.253 -2.008,0.253 v 0 c -0.685,0 -1.369,-0.087 -2.037,-0.26 m -40.208,-6.126 c 0.116,-0.719 0.054,-1.454 -0.183,-2.141 v 0 c -0.126,-0.33 -0.301,-0.639 -0.515,-0.92 v 0 c 2.102,0.276 4.22,0.415 6.341,0.416 v 0 c 2.101,0.001 4.201,-0.135 6.283,-0.41 v 0 c -0.221,0.288 -0.397,0.609 -0.521,0.951 v 0 c -0.234,0.68 -0.299,1.406 -0.188,2.116 v 0 c -1.848,0.192 -3.704,0.289 -5.562,0.29 v 0 c -0.008,0 -0.017,0 -0.025,0 v 0 c -1.881,0 -3.76,-0.101 -5.63,-0.302 M 57.179,121.536 c 0.389,-9.029 3.077,-17.807 7.807,-25.501 v 0 C 69.717,88.34 76.332,81.987 84.204,77.578 v 0 c 7.872,-4.409 16.739,-6.726 25.757,-6.734 v 0 c 9.018,-0.006 17.889,2.299 25.767,6.697 v 0 c 7.879,4.398 14.504,10.741 19.246,18.428 v 0 c 4.741,7.688 7.441,16.462 7.843,25.489 v 0 c 0.402,9.028 -1.506,18.009 -5.545,26.088 v 0 0.006 c -0.647,-1.511 -1.383,-2.983 -2.206,-4.407 v 0 c 2.902,-7.366 3.961,-15.33 3.087,-23.199 v 0 c -0.874,-7.87 -3.657,-15.406 -8.104,-21.952 v 0 C 145.602,91.449 139.624,86.093 132.637,82.393 v 0 c -6.986,-3.7 -14.769,-5.63 -22.672,-5.626 v 0 c -7.902,0.007 -15.684,1.949 -22.665,5.658 v 0 c -6.981,3.71 -12.951,9.074 -17.39,15.625 v 0 c -4.438,6.552 -7.21,14.092 -8.073,21.962 v 0 c -0.864,7.872 0.207,15.835 3.119,23.196 v 0 c -0.821,1.423 -1.553,2.895 -2.194,4.407 v 0 c -4.05,-8.073 -5.972,-17.051 -5.583,-26.079 M 137.47,89.462 v 0 c 0,0 0,0 0,0 v 0 c 0,0 0,0 0,0"
         id="path40" />
    </clipPath>
    <linearGradient
       x1="0"
       y1="0"
       x2="1"
       y2="0"
       gradientUnits="userSpaceOnUse"
       gradientTransform="matrix(0,108.23638,108.23638,0,110,86.952324)"
       spreadMethod="pad"
       id="linearGradient54">
      <stop
         style="stop-opacity:1;stop-color:#ff0a32"
         offset="0"
         id="stop48" />
      <stop
         style="stop-opacity:1;stop-color:#ff0a32"
         offset="0.55760042"
         id="stop50" />
      <stop
         style="stop-opacity:1;stop-color:#fc4c02"
         offset="1"
         id="stop52" />
    </linearGradient>
    <clipPath
       clipPathUnits="userSpaceOnUse"
       id="clipPath64">
      <path
         d="M 0,220 H 220 V 0 H 0 Z"
         id="path62" />
    </clipPath>
  </defs>
  <sodipodi:namedview
     id="namedview4"
     pagecolor="#ffffff"
     bordercolor="#000000"
     borderopacity="0.25"
     inkscape:showpageshadow="2"
     inkscape:pageopacity="0.0"
     inkscape:pagecheckerboard="0"
     inkscape:deskcolor="#d1d1d1"
     showgrid="false" />
  <g
     id="g10"
     inkscape:groupmode="layer"
     inkscape:label="Page 1"
     transform="matrix(1.3333333,0,0,-1.3333333,-16.201332,270.79066)">
    <g
       id="g12"
       transform="translate(122.5186,161.6665)">
      <path
         d="m 0,0 v 2.252 h -9.721 v -9.425 h 2.269 v 3.35 h 6.523 v 2.05 H -7.452 V 0 Z"
         style="fill:#000000;fill-opacity:1;fill-rule:nonzero;stroke:none"
         id="path14" />
    </g>
    <g
       id="g16"
       transform="translate(107.3574,147.5259)">
      <path
         d="m 0,0 v 2.256 h -10.169 v -9.72 H 0.139 v 2.328 h -7.972 v 1.618 h 6.937 v 2.042 H -7.833 V 0 Z"
         style="fill:#000000;fill-opacity:1;fill-rule:nonzero;stroke:none"
         id="path18" />
    </g>
    <g
       id="g20"
       transform="translate(112.7979,140.062)">
      <path
         d="M 0,0 H 2.269 V 3.406 H 8.792 V 5.535 H 2.269 v 1.84 H 9.721 V 9.72 H 0 Z"
         style="fill:#000000;fill-opacity:1;fill-rule:nonzero;stroke:none"
         id="path22" />
    </g>
    <g
       id="g24">
      <g
         id="g26"
         clip-path="url(#clipPath30)">
        <g
           id="g32"
           transform="translate(102.9971,159.5469)">
          <path
             d="m 0,0 h -3.459 v 2.176 h 3.597 c 0.946,0 1.354,-0.34 1.354,-1.028 C 1.492,0.46 1.153,0 -0.019,0 Z m 1.88,-1.842 c 0.611,0.22 1.137,0.629 1.502,1.169 0.366,0.539 0.553,1.181 0.535,1.834 0,2.05 -1.253,3.211 -3.459,3.211 h -6.267 v -9.426 h 2.306 v 2.94 h 2.851 l 2.376,-2.94 H 4.5 Z"
             style="fill:#000000;fill-opacity:1;fill-rule:nonzero;stroke:none"
             id="path34" />
        </g>
      </g>
    </g>
    <g
       id="g36">
      <g
         id="g38"
         clip-path="url(#clipPath42)">
        <g
           id="g44">
          <g
             id="g46">
            <path
               d="m 107.054,198.849 c 0,-1.776 0.754,-3.293 1.823,-3.93 v 0 c -0.446,-2.94 -4.632,-5.554 -8.396,-7.115 v 0 c -2.325,-0.964 -5.116,-2.085 -5.926,-4.263 v 0 c -0.691,-1.852 0.628,-3.741 1.138,-5.472 v 0 c 0.181,-0.63 -0.133,-1.097 -1.018,-1.342 v 0 c -1.101,-0.308 -3.256,-0.73 -5.99,-1.625 v 0 c -3.142,-1.032 -5.392,-2.058 -5.881,-5.377 v 0 l -0.057,-0.415 c -0.258,-2.595 -0.372,-5.265 -0.372,-7.948 v 0 -0.736 c 0.139,-12.721 2.949,-25.674 6.159,-32.418 v 0 c 3.249,-6.813 8.798,-10.491 14.523,-12.55 v 0 l 0.076,-0.63 C 104.201,94.292 89.521,89.513 83.375,89.456 v 0 h -0.841 c 0.106,0 2.776,-2.097 2.776,-2.097 v 0 c 19.388,1.631 23.077,16.467 23.077,26.448 v 0 4.282 c 0,0 -11.362,0.705 -16.069,12.134 v 0 c -1.735,4.206 -2.269,7.337 -3.174,14.742 v 0 c -1.175,9.596 -0.71,20.119 -0.503,21.24 v 0 c 0.144,1.072 0.698,2.046 1.546,2.714 v 0 c 0.348,0.246 0.717,0.457 1.106,0.63 v 0 -0.045 l 0.157,0.07 h -0.125 l 0.069,0.032 c 1.753,0.66 4.657,1.259 6.196,1.768 v 0 c 3.815,1.191 5.367,3.779 2.608,8.76 v 0 l -0.05,0.095 c -0.321,0.667 0,1.121 0.534,1.485 v 0 c 0.648,0.355 1.325,0.654 2.023,0.895 v 0 c 3.652,1.442 6.989,3.533 7.271,11.927 v 0 c 0.283,-8.394 3.621,-10.485 7.272,-11.927 v 0 c 1.57,-0.63 3.261,-1.121 2.512,-2.475 v 0 c -2.758,-4.969 -1.206,-7.557 2.609,-8.76 v 0 c 1.54,-0.484 4.444,-1.108 6.196,-1.768 v 0 l 0.34,-0.146 0.383,-0.201 c 0.551,-0.318 1.02,-0.758 1.375,-1.287 v 0 c 0.354,-0.528 0.582,-1.13 0.668,-1.761 v 0 c 0.207,-1.12 0.672,-11.643 -0.503,-21.24 v 0 c -0.905,-7.406 -1.44,-10.535 -3.142,-14.742 v 0 C 122.979,118.8 111.617,118.095 111.617,118.095 v 0 -4.282 c 0,-9.993 3.688,-24.83 23.075,-26.448 v 0 c 0,0 2.659,2.094 2.778,2.097 v 0 h -0.822 c -6.153,0.057 -20.827,4.836 -19.752,25.572 v 0 0.63 c 5.737,2.06 11.311,5.737 14.567,12.55 v 0 c 3.947,8.3 7.295,26.007 5.788,41.096 v 0 c -0.371,3.652 -2.64,4.722 -5.939,5.792 v 0 c -2.734,0.895 -4.889,1.317 -5.989,1.625 v 0 c -0.886,0.245 -1.201,0.699 -1.019,1.342 v 0 c 0.491,1.731 1.83,3.62 1.138,5.472 v 0 c -0.81,2.178 -3.601,3.299 -5.926,4.263 v 0 c -3.771,1.561 -7.956,4.169 -8.415,7.104 v 0 c 1.075,0.629 1.842,2.152 1.842,3.941 v 0 c 0,2.342 -1.32,4.244 -2.941,4.244 v 0 c -1.621,0 -2.948,-1.889 -2.948,-4.244 M 71.366,182.684 c -5.091,-1.159 -9.018,-6.177 -9.697,-13.224 v 0 c -0.874,-9.067 2.074,-19.534 7.033,-26.699 v 0 C 78.9,128.045 87.196,126.068 87.196,126.068 v 0 l -0.534,1.259 c 0,0 -14.209,7.198 -19.268,28.525 v 0 c -4.022,16.946 1.955,20.592 4.431,20.642 v 0 c 0.49,0.035 0.98,-0.08 1.407,-0.327 v 0 c -0.169,-2.526 1.414,-4.678 3.544,-4.818 v 0 c 2.131,-0.138 4.029,1.807 4.167,4.326 v 0 c 0.044,0.934 -0.109,1.865 -0.451,2.734 v 0 c -0.342,0.869 -0.865,1.654 -1.535,2.305 v 0 c -0.996,0.943 -2.215,1.619 -3.542,1.963 v 0 c -0.668,0.174 -1.352,0.26 -2.037,0.26 v 0 c -0.676,0 -1.352,-0.084 -2.012,-0.253 m 73.22,-0.038 c -1.328,-0.345 -2.545,-1.021 -3.54,-1.964 v 0 c -0.671,-0.65 -1.195,-1.434 -1.539,-2.304 v 0 c -0.344,-0.868 -0.498,-1.801 -0.453,-2.734 v 0 c 0.138,-2.468 2.035,-4.401 4.167,-4.27 v 0 c 2.13,0.133 3.714,2.293 3.544,4.818 v 0 c 0.426,0.248 0.917,0.361 1.407,0.328 v 0 c 2.476,-0.051 8.453,-3.697 4.43,-20.643 v 0 c -5.058,-21.328 -19.267,-28.525 -19.267,-28.525 v 0 l -0.535,-1.259 c 0,0 8.303,1.919 18.496,16.636 v 0 c 4.957,7.167 7.905,17.632 7.032,26.7 v 0 c -0.679,7.047 -4.606,12.065 -9.697,13.224 v 0 c -0.658,0.169 -1.333,0.253 -2.008,0.253 v 0 c -0.685,0 -1.369,-0.087 -2.037,-0.26 m -40.208,-6.126 c 0.116,-0.719 0.054,-1.454 -0.183,-2.141 v 0 c -0.126,-0.33 -0.301,-0.639 -0.515,-0.92 v 0 c 2.102,0.276 4.22,0.415 6.341,0.416 v 0 c 2.101,0.001 4.201,-0.135 6.283,-0.41 v 0 c -0.221,0.288 -0.397,0.609 -0.521,0.951 v 0 c -0.234,0.68 -0.299,1.406 -0.188,2.116 v 0 c -1.848,0.192 -3.704,0.289 -5.562,0.29 v 0 c -0.008,0 -0.017,0 -0.025,0 v 0 c -1.881,0 -3.76,-0.101 -5.63,-0.302 M 57.179,121.536 c 0.389,-9.029 3.077,-17.807 7.807,-25.501 v 0 C 69.717,88.34 76.332,81.987 84.204,77.578 v 0 c 7.872,-4.409 16.739,-6.726 25.757,-6.734 v 0 c 9.018,-0.006 17.889,2.299 25.767,6.697 v 0 c 7.879,4.398 14.504,10.741 19.246,18.428 v 0 c 4.741,7.688 7.441,16.462 7.843,25.489 v 0 c 0.402,9.028 -1.506,18.009 -5.545,26.088 v 0 0.006 c -0.647,-1.511 -1.383,-2.983 -2.206,-4.407 v 0 c 2.902,-7.366 3.961,-15.33 3.087,-23.199 v 0 c -0.874,-7.87 -3.657,-15.406 -8.104,-21.952 v 0 C 145.602,91.449 139.624,86.093 132.637,82.393 v 0 c -6.986,-3.7 -14.769,-5.63 -22.672,-5.626 v 0 c -7.902,0.007 -15.684,1.949 -22.665,5.658 v 0 c -6.981,3.71 -12.951,9.074 -17.39,15.625 v 0 c -4.438,6.552 -7.21,14.092 -8.073,21.962 v 0 c -0.864,7.872 0.207,15.835 3.119,23.196 v 0 c -0.821,1.423 -1.553,2.895 -2.194,4.407 v 0 c -4.05,-8.073 -5.972,-17.051 -5.583,-26.079 M 137.47,89.462 v 0 c 0,0 0,0 0,0 v 0 c 0,0 0,0 0,0"
               style="fill:url(#linearGradient54);stroke:none"
               id="path56" />
          </g>
        </g>
      </g>
    </g>
    <g
       id="g58">
      <g
         id="g60"
         clip-path="url(#clipPath64)">
        <g
           id="g66"
           transform="translate(20.231,63.627)">
          <path
             d="M 0,0 H -0.617 C -3.289,0 -5.201,-0.653 -6.353,-1.959 -7.504,-3.264 -8.08,-5.387 -8.08,-8.327 v -30.067 c 0,-2.94 0.576,-5.062 1.727,-6.368 1.152,-1.305 3.064,-1.958 5.736,-1.958 h 0.679 c 2.549,0 4.42,0.653 5.612,1.958 1.193,1.306 1.789,3.325 1.789,6.06 V -28.68 H 2.344 v -10.361 c 0,-0.987 -0.206,-1.748 -0.617,-2.282 -0.411,-0.535 -1.007,-0.802 -1.789,-0.802 h -0.431 c -1.686,0 -2.529,1.048 -2.529,3.146 V -7.71 c 0,2.076 0.843,3.114 2.529,3.114 H 0 c 1.562,0 2.344,-1.038 2.344,-3.114 v -9.591 h 5.119 v 9.282 c 0,2.735 -0.601,4.755 -1.804,6.06 C 4.456,-0.653 2.57,0 0,0"
             style="fill:#000000;fill-opacity:1;fill-rule:nonzero;stroke:none"
             id="path68" />
        </g>
        <g
           id="g70"
           transform="translate(42.2959,24.5859)">
          <path
             d="M 0,0 C 0,-0.967 -0.216,-1.723 -0.647,-2.267 -1.08,-2.812 -1.686,-3.084 -2.467,-3.084 H -2.96 c -1.727,0 -2.591,1.027 -2.591,3.084 v 31.331 c 0,2.076 0.864,3.114 2.591,3.114 h 0.493 c 0.781,0 1.387,-0.266 1.82,-0.801 C -0.216,33.109 0,32.339 0,31.331 Z m -2.405,39.041 h -0.679 c -2.611,0 -4.518,-0.648 -5.72,-1.943 -1.203,-1.295 -1.804,-3.321 -1.804,-6.076 V 0.339 c 0,-2.755 0.601,-4.78 1.804,-6.075 1.202,-1.295 3.109,-1.943 5.72,-1.943 h 0.771 c 2.549,0 4.425,0.653 5.628,1.958 1.203,1.306 1.804,3.325 1.804,6.06 v 30.683 c 0,2.735 -0.612,4.755 -1.835,6.06 -1.223,1.306 -3.119,1.959 -5.689,1.959"
             style="fill:#000000;fill-opacity:1;fill-rule:nonzero;stroke:none"
             id="path72" />
        </g>
        <g
           id="g74"
           transform="translate(61.7051,42.1631)">
          <path
             d="m 0,0 c 0,-1.007 -0.195,-1.701 -0.586,-2.081 -0.391,-0.381 -1.079,-0.571 -2.066,-0.571 h -2.22 v 18.75 h 2.467 c 0.925,0 1.557,-0.191 1.896,-0.571 C -0.169,15.146 0,14.433 0,13.384 Z M -2.282,20.847 H -9.93 V -24.64 h 5.058 v 17.239 h 2.22 c 2.735,0 4.693,0.586 5.875,1.757 1.182,1.172 1.773,3.136 1.773,5.891 v 13.198 c 0,2.714 -0.56,4.626 -1.681,5.737 -1.12,1.11 -2.986,1.665 -5.597,1.665"
             style="fill:#000000;fill-opacity:1;fill-rule:nonzero;stroke:none"
             id="path76" />
        </g>
        <g
           id="g78"
           transform="translate(75.3511,31.1543)">
          <path
             d="m 0,0 1.727,22.758 0.185,5.304 H 2.405 L 2.59,22.758 4.317,0 Z m 6.908,31.855 h -9.221 l -3.793,-45.486 h 5.027 l 0.709,8.974 h 5.057 l 0.679,-8.974 h 5.304 z"
             style="fill:#000000;fill-opacity:1;fill-rule:nonzero;stroke:none"
             id="path80" />
        </g>
        <g
           id="g82"
           transform="translate(99.2329,53.6914)">
          <path
             d="m 0,0 c 0,-1.281 -0.906,-1.978 -2.568,-1.978 h -2.313 v 4.097 h 2.313 C -0.906,2.119 0,1.424 0,0.142 Z m -2.368,3.647 h -4.294 v -7.152 h 4.307 c 2.7,0 4.186,1.233 4.186,3.505 V 0.142 C 1.819,2.403 0.33,3.647 -2.368,3.647"
             style="fill:#000000;fill-opacity:1;fill-rule:nonzero;stroke:none"
             id="path84" />
        </g>
        <g
           id="g86"
           transform="translate(112.6201,55.8105)">
          <path
             d="m 0,0 v 1.528 h -7.979 v -7.152 h 8.045 v 1.527 h -6.191 v 1.393 h 5.366 v 1.473 H -6.125 V 0 Z"
             style="fill:#000000;fill-opacity:1;fill-rule:nonzero;stroke:none"
             id="path88" />
        </g>
        <g
           id="g90"
           transform="translate(99.0596,40.1416)">
          <path
             d="M 0,0 C -0.289,0.215 -0.742,0.364 -1.359,0.446 L -2.301,0.571 C -2.829,0.643 -3.093,0.792 -3.093,1.02 v 0.023 c 0,0.144 0.082,0.249 0.245,0.315 0.164,0.068 0.425,0.101 0.784,0.101 h 0.084 c 0.318,0 0.629,-0.045 0.934,-0.132 0.304,-0.088 0.572,-0.211 0.806,-0.372 L 0.24,1.69 C -0.089,1.902 -0.429,2.053 -0.779,2.144 -1.129,2.234 -1.544,2.28 -2.023,2.28 H -2.11 C -2.785,2.28 -3.298,2.171 -3.65,1.954 -4.002,1.737 -4.178,1.42 -4.178,1.001 V 0.979 c 0,-0.365 0.136,-0.651 0.407,-0.859 0.271,-0.208 0.691,-0.35 1.262,-0.428 l 0.942,-0.125 c 0.339,-0.044 0.584,-0.102 0.731,-0.175 0.149,-0.074 0.223,-0.172 0.223,-0.295 V -0.93 c 0,-0.147 -0.092,-0.257 -0.276,-0.326 C -1.073,-1.325 -1.36,-1.36 -1.75,-1.36 h -0.071 c -0.378,0 -0.756,0.049 -1.134,0.149 -0.378,0.099 -0.7,0.234 -0.968,0.405 l -0.408,-0.792 c 0.363,-0.204 0.747,-0.355 1.154,-0.452 0.406,-0.097 0.861,-0.145 1.362,-0.145 h 0.077 c 0.737,0 1.282,0.105 1.638,0.315 0.356,0.212 0.534,0.535 0.534,0.971 v 0.023 C 0.434,-0.511 0.289,-0.215 0,0"
             style="fill:#000000;fill-opacity:1;fill-rule:nonzero;stroke:none"
             id="path92" />
        </g>
        <g
           id="g94"
           transform="translate(100.3994,39.0703)">
          <path
             d="m 0,0 c -0.175,0 -0.316,-0.051 -0.422,-0.151 -0.106,-0.102 -0.159,-0.239 -0.159,-0.41 0,-0.173 0.052,-0.311 0.156,-0.412 0.104,-0.101 0.246,-0.151 0.425,-0.151 0.173,0 0.314,0.051 0.42,0.155 0.108,0.105 0.161,0.24 0.161,0.408 0,0.166 -0.055,0.301 -0.163,0.405 C 0.309,-0.052 0.169,0 0,0"
             style="fill:#000000;fill-opacity:1;fill-rule:nonzero;stroke:none"
             id="path96" />
        </g>
        <g
           id="g98"
           transform="translate(105.9648,38.9688)">
          <path
             d="M 0,0 -0.032,-0.471 H -0.089 L -0.119,0 -0.83,3.349 h -2.029 v -4.265 h 1.04 v 3.818 h 0.047 l 0.112,-0.591 0.683,-3.227 h 1.818 l 0.68,3.227 0.113,0.591 H 1.68 V -0.916 H 2.747 V 3.349 H 0.729 Z"
             style="fill:#000000;fill-opacity:1;fill-rule:nonzero;stroke:none"
             id="path100" />
        </g>
        <g
           id="g102"
           transform="translate(110.3657,38.9141)">
          <path
             d="m 0,0 c -0.109,0.104 -0.249,0.156 -0.418,0.156 -0.175,0 -0.316,-0.051 -0.422,-0.151 -0.106,-0.102 -0.159,-0.238 -0.159,-0.409 0,-0.174 0.052,-0.312 0.156,-0.412 0.104,-0.102 0.246,-0.152 0.425,-0.152 0.173,0 0.314,0.051 0.42,0.156 0.108,0.104 0.161,0.24 0.161,0.408 0,0.166 -0.055,0.3 -0.163,0.404"
             style="fill:#000000;fill-opacity:1;fill-rule:nonzero;stroke:none"
             id="path104" />
        </g>
        <g
           id="g106"
           transform="translate(94.4707,30.3779)">
          <path
             d="m 0,0 h -1.899 v -6.997 h 7.87 v 1.495 H 0 Z"
             style="fill:#000000;fill-opacity:1;fill-rule:nonzero;stroke:none"
             id="path108" />
        </g>
        <g
           id="g110"
           transform="translate(106.0869,25.958)">
          <path
             d="M 0,0 1.459,3.141 1.653,3.675 H 1.794 L 1.988,3.141 3.432,0 Z M 4.624,-2.577 H 6.6 L 3.244,4.42 H 0.335 l -3.356,-6.997 h 1.855 l 0.579,1.256 h 4.662 z"
             style="fill:#000000;fill-opacity:1;fill-rule:nonzero;stroke:none"
             id="path112" />
        </g>
        <g
           id="g114"
           transform="translate(129.6992,45)">
          <path
             d="m 0,0 c 0,-1.007 -0.195,-1.701 -0.586,-2.081 -0.391,-0.381 -1.079,-0.57 -2.065,-0.57 H -4.44 v 15.912 h 1.973 c 0.946,0 1.594,-0.191 1.943,-0.571 C -0.175,12.31 0,11.616 0,10.608 Z m 4.24,-3.376 c 0.484,1.059 0.725,2.41 0.725,4.055 v 9.929 c 0,2.714 -0.555,4.626 -1.665,5.737 -1.111,1.11 -2.991,1.665 -5.644,1.665 h -7.154 v -45.487 h 5.058 v 23.129 h 0.524 L 0.802,-27.477 H 6.291 L 1.573,-5.674 c 1.295,0.473 2.185,1.238 2.667,2.298"
             style="fill:#000000;fill-opacity:1;fill-rule:nonzero;stroke:none"
             id="path116" />
        </g>
        <g
           id="g118"
           transform="translate(145.3008,40.498)">
          <path
             d="M 0,0 H 5.119 V 4.379 H 0 v 13.384 h 6.631 v 4.749 H -5.058 V -22.975 H 7.031 v 4.749 H 0 Z"
             style="fill:#000000;fill-opacity:1;fill-rule:nonzero;stroke:none"
             id="path120" />
        </g>
        <path
           d="m 156.803,17.523 h 5.057 v 45.486 h -5.057 z"
           style="fill:#000000;fill-opacity:1;fill-rule:nonzero;stroke:none"
           id="path122" />
        <g
           id="g124"
           transform="translate(181.6592,22.0566)">
          <path
             d="m 0,0 h -0.524 l -0.371,5.058 -4.594,35.895 h -9.314 V -4.533 h 4.935 v 40.922 h 0.524 l 0.37,-5.057 4.657,-35.865 h 9.22 V 40.953 H 0 Z"
             style="fill:#000000;fill-opacity:1;fill-rule:nonzero;stroke:none"
             id="path126" />
        </g>
        <g
           id="g128"
           transform="translate(197.1787,31.1543)">
          <path
             d="m 0,0 1.727,22.758 0.185,5.304 H 2.405 L 2.59,22.758 4.317,0 Z m 6.907,31.855 h -9.22 l -3.793,-45.486 h 5.027 l 0.709,8.974 h 5.057 l 0.678,-8.974 h 5.305 z"
             style="fill:#000000;fill-opacity:1;fill-rule:nonzero;stroke:none"
             id="path130" />
        </g>
      </g>
    </g>
  </g>
</svg>
