<?xml version="1.0" encoding="UTF-8" standalone="no"?>
<svg
   id="svg24"
   version="1.1"
   viewBox="0 0 100 56"
   height="56"
   width="100"
   sodipodi:docname="2015_UEFA_Europa_League_logo.svg"
   inkscape:version="1.1 (c68e22c387, 2021-05-23)"
   xmlns:inkscape="http://www.inkscape.org/namespaces/inkscape"
   xmlns:sodipodi="http://sodipodi.sourceforge.net/DTD/sodipodi-0.dtd"
   xmlns="http://www.w3.org/2000/svg"
   xmlns:svg="http://www.w3.org/2000/svg"
   xmlns:rdf="http://www.w3.org/1999/02/22-rdf-syntax-ns#"
   xmlns:cc="http://creativecommons.org/ns#"
   xmlns:dc="http://purl.org/dc/elements/1.1/">
  <defs
     id="defs8" />
  <sodipodi:namedview
     id="namedview6"
     pagecolor="#ffffff"
     bordercolor="#111111"
     borderopacity="1"
     inkscape:pageshadow="0"
     inkscape:pageopacity="0"
     inkscape:pagecheckerboard="1"
     showgrid="false"
     height="139px"
     inkscape:zoom="4.0000002"
     inkscape:cx="48.374998"
     inkscape:cy="21.499999"
     inkscape:window-width="1600"
     inkscape:window-height="878"
     inkscape:window-x="-8"
     inkscape:window-y="-8"
     inkscape:window-maximized="1"
     inkscape:current-layer="svg24" />
  <title
     id="title32">UEFA Women's Champions League logo</title>
  <g
     id="#231815ff"
     transform="matrix(0.41727684,0,0,0.41727684,-32.201042,10.17658)" />
  <metadata
     id="metadata2349">
    <rdf:RDF>
      <cc:Work
         rdf:about="">
        <dc:title>UEFA Women's Champions League logo</dc:title>
        <dc:date>2 nov 2021</dc:date>
        <cc:license
           rdf:resource="http://scripts.sil.org/OFL" />
      </cc:Work>
      <cc:License
         rdf:about="http://scripts.sil.org/OFL">
        <cc:permits
           rdf:resource="http://scripts.sil.org/pub/OFL/Reproduction" />
        <cc:permits
           rdf:resource="http://scripts.sil.org/pub/OFL/Distribution" />
        <cc:permits
           rdf:resource="http://scripts.sil.org/pub/OFL/Embedding" />
        <cc:permits
           rdf:resource="http://scripts.sil.org/pub/OFL/DerivativeWorks" />
        <cc:requires
           rdf:resource="http://scripts.sil.org/pub/OFL/Notice" />
        <cc:requires
           rdf:resource="http://scripts.sil.org/pub/OFL/Attribution" />
        <cc:requires
           rdf:resource="http://scripts.sil.org/pub/OFL/ShareAlike" />
        <cc:requires
           rdf:resource="http://scripts.sil.org/pub/OFL/DerivativeRenaming" />
        <cc:requires
           rdf:resource="http://scripts.sil.org/pub/OFL/BundlingWhenSelling" />
      </cc:License>
    </rdf:RDF>
  </metadata>
  <path
     d="m 72.553896,45.516852 c 0.492955,0.285835 0.841761,0.827493 0.848403,1.421548 9.84e-4,0.0092 9.84e-4,7.770912 9.84e-4,8.812659 h 6.78968 v -2.673366 l -0.0679,-0.02091 c -0.28608,0.492463 -0.828477,0.841024 -1.423023,0.847419 -0.0056,9.84e-4 -1.60284,9.84e-4 -3.018485,9.84e-4 v -2.434271 h 3.618688 V 49.688508 H 75.683555 V 47.2904 h 4.579998 V 45.44871 H 72.57455 Z m -44.132174,0 c 0.4932,0.285835 0.841761,0.827493 0.848648,1.421548 9.84e-4,0.0092 9.84e-4,7.770912 9.84e-4,8.812659 h 6.789679 v -2.673366 l -0.0679,-0.02091 c -0.28608,0.492463 -0.828724,0.841024 -1.42327,0.847419 -0.0056,9.84e-4 -1.602838,9.84e-4 -3.018235,9.84e-4 v -2.434271 h 3.618685 V 49.688508 H 31.551628 V 47.2904 h 4.579749 v -1.84169 h -7.688755 z m -2.73068,8.387351 c -0.0059,9.84e-4 -1.55529,9.84e-4 -2.825876,0.0015 V 45.448961 H 19.75616 l -0.02091,0.0679 c 0.493077,0.285835 0.84181,0.827493 0.848378,1.421548 9.84e-4,0.0092 0.0015,7.582733 0.0015,8.812659 h 6.597565 v -2.673366 l -0.0679,-0.02091 c -0.28608,0.492463 -0.828724,0.841024 -1.423516,0.847419 z m 30.593159,-3.31637 c 0.493199,0.285834 0.841761,0.827493 0.848403,1.421547 4.91e-4,0.0059 9.83e-4,0.986647 9.83e-4,1.863337 -0.43072,0.148083 -0.897846,0.229996 -1.386617,0.229996 -2.622448,0 -3.932072,-1.873422 -3.932072,-3.513897 0,-0.58323 0.15743,-1.169658 0.448185,-1.650805 0.653337,-1.135466 1.966897,-1.912287 3.483887,-1.912287 1.528304,0 2.84703,0.790595 3.4952,1.94033 l 0.05584,-0.01698 -0.0015,-2.344729 c -1.804546,-1.414906 -4.587867,-1.676879 -6.828052,-0.609304 -1.906876,0.908914 -2.931404,2.62466 -2.931404,4.573353 0,2.001827 1.033875,3.751763 2.962398,4.668058 0.916787,0.43564 1.917453,0.648909 2.905082,0.648909 1.395966,-2.47e-4 2.831288,-0.427277 3.893453,-1.255754 v -4.10967 h -2.99291 z M 67.59164,45.516852 c 0.493447,0.285835 0.842007,0.827493 0.848403,1.421548 0,0.218925 0.0015,3.727902 0.0015,4.594999 0,3.210843 -4.290717,3.197559 -4.290717,0.05682 l 0.002,-6.134375 h -3.10925 l -0.02067,0.0679 c 0.492954,0.285834 0.84176,0.82774 0.848402,1.421792 9.85e-4,0.0092 0.0056,4.592787 0.0056,4.592787 0,0 -0.02977,0.84053 0.316337,1.765681 0.197034,0.526408 0.500334,0.982218 0.88161,1.363248 0.381277,0.381031 0.850617,0.681872 1.393752,0.89391 0.541659,0.211301 1.158097,0.318797 1.832342,0.318797 0.673998,0 1.290683,-0.107496 1.832343,-0.318797 0.54338,-0.212038 1.013458,-0.512879 1.397194,-0.893663 0.383245,-0.380786 0.681379,-0.839547 0.885301,-1.363495 0.202692,-0.521243 0.305759,-1.095617 0.305759,-1.70689 v -6.14815 H 67.612597 Z M 41.999357,51.63991 c 0,0 1.412692,-3.663454 1.423269,-3.696417 9.84e-4,0.0034 0.0025,0.0068 0.0034,0.01083 9.83e-4,-0.0039 0.0025,-0.0071 0.0039,-0.01083 0.01058,0.03296 1.423269,3.696417 1.423269,3.696417 z m 6.764098,3.542431 C 48.51255,54.870678 48.434818,54.650275 48.257217,54.29286 48.225729,54.229392 48.194,54.162488 48.166689,54.096809 l -3.609583,-8.650801 h -2.261587 l -3.650664,8.74895 c -0.214746,0.41719 -0.282638,0.648169 -0.55568,0.987383 -0.278947,0.345855 -0.634396,0.511157 -0.646695,0.511157 l 0.01672,0.05387 c 0.150542,0 0.331834,-2.45e-4 0.331834,-2.45e-4 h 2.001826 c 0.358154,0 0.703272,-0.225322 0.82036,-0.53305 l 0.745581,-1.916961 h 4.135254 l 0.745335,1.916961 c 0.117335,0.307973 0.455072,0.53305 0.820114,0.53305 0,0 2.183609,2.45e-4 2.333906,2.45e-4 l 0.01697,-0.05387 c -0.01254,0 -0.368239,-0.165302 -0.646939,-0.511157 z m 49.39478,-19.982842 c -0.428506,-0.177847 -0.896862,-0.293213 -1.358822,-0.406859 -0.645956,-0.159398 -1.261165,-0.310432 -1.753873,-0.616438 -0.690726,-0.40932 -0.40194,-1.303721 0.266893,-1.577995 0.472046,-0.199739 1.059458,-0.252133 1.670484,-0.141932 0.9099,0.164071 1.694346,0.652598 2.152124,1.340863 l 0.255824,0.37439 0.07772,-0.02263 -0.0049,-2.491336 c 0,0 -0.167762,-0.145869 -0.199003,-0.163579 -1.535192,-1.196471 -4.067115,-1.25354 -5.652981,-0.124223 -1.19598,0.851354 -1.531504,2.162701 -0.916541,3.606386 0.508698,1.033629 1.606529,1.389569 2.67189,1.637031 0.214499,0.04993 0.430474,0.0915 0.646941,0.133323 0.441788,0.08536 1.51084,0.369224 1.591769,1.123905 0.08389,0.794535 -0.509927,1.181962 -0.941877,1.333487 -1.112345,0.38915 -2.709033,-0.165547 -3.617456,-1.095373 -0.349545,-0.357415 -0.538214,-0.782724 -0.627262,-1.034858 l -0.06691,0.01943 v 2.843834 c 0.551991,0.458517 1.741083,1.189338 3.447726,1.189338 1.253786,0 2.512246,-0.4258 3.250201,-1.317003 0.619386,-0.747795 0.792565,-1.366202 0.757137,-2.207473 -0.04382,-1.048384 -0.678425,-2.000592 -1.648836,-2.402286 z M 86.73961,30.738069 c 0.494429,0.286572 0.843482,0.811997 0.850616,1.407772 0,0.05978 -0.002,5.111324 -0.002,5.111324 l -5.191008,-6.224899 c -0.211546,-0.262219 -0.430473,-0.362335 -0.767473,-0.362335 h -2.076359 l -0.02091,0.06814 c 0.494676,0.286572 0.843482,0.811997 0.850124,1.407772 0,0.05978 -0.0039,8.856448 -0.0039,8.856448 h 2.922302 l 0.01624,-0.05215 c -0.333064,-0.209335 -0.835121,-0.661701 -0.835121,-1.578733 0,0 -0.0025,-4.862142 -0.0066,-4.966686 l 5.182166,6.213338 c 0.237621,0.286573 0.460976,0.380784 0.832168,0.384229 h 1.200899 V 30.669931 h -2.93042 z m -37.126524,8.633339 v -8.701477 h -1.670238 c -0.352742,0 -0.658748,0.05756 -0.820852,0.391116 l -3.137539,5.783108 c -0.08536,0.151036 -0.166533,0.310926 -0.241557,0.475982 -0.01574,0.03469 -0.03173,0.06986 -0.04698,0.10479 -0.01402,-0.03124 -0.02779,-0.06248 -0.04182,-0.09348 -0.07306,-0.16358 -0.153001,-0.322979 -0.237128,-0.471307 L 40.247709,31.05785 C 40.082161,30.728722 39.77591,30.669931 39.420954,30.669931 h -2.497978 l -0.02115,0.06814 c 0.494675,0.286572 0.829215,0.802649 0.836103,1.398425 9.85e-4,0.07183 0.01255,8.865795 0.01255,8.865795 h 2.922056 l 0.01648,-0.05215 C 40.355943,40.74081 39.853642,40.288444 39.853642,39.371412 l -0.0015,-4.992022 c 0,-0.0092 0,-0.01796 -2.45e-4,-0.0273 l 2.905083,5.462837 h 1.886726 l 2.868185,-5.447832 v 6.635202 h 2.922302 l 0.01599,-0.05215 c -0.332818,-0.209335 -0.837088,-0.661701 -0.837088,-1.578733 z m 26.249063,-2.099484 c -0.144885,0.409811 -0.355202,0.760339 -0.625047,1.04224 -0.269108,0.28116 -0.601188,0.500088 -0.987138,0.650385 -0.389149,0.151773 -0.836596,0.228766 -1.329304,0.228766 -0.492708,0 -0.941139,-0.07699 -1.332993,-0.229012 -0.388902,-0.150543 -0.723196,-0.36947 -0.994271,-0.650631 -0.272552,-0.2819 -0.484837,-0.632429 -0.632673,-1.042486 -0.148821,-0.413748 -0.224339,-0.890221 -0.224339,-1.416382 0,-0.525916 0.07551,-1.002389 0.224584,-1.416136 0.147591,-0.409811 0.360123,-0.761815 0.632919,-1.04642 0.270831,-0.282884 0.605123,-0.50304 0.99378,-0.653582 0.3921,-0.152019 0.840532,-0.229012 1.332993,-0.229012 0.492462,0 0.939663,0.07699 1.329304,0.228765 0.385704,0.150297 0.717783,0.370208 0.986399,0.65309 0.270337,0.284606 0.480901,0.636856 0.625786,1.046175 0.146853,0.414731 0.221387,0.891696 0.221387,1.41712 0,0.52567 -0.07454,1.002634 -0.221387,1.41712 z m 2.608673,-1.41712 c 0,-0.750746 -0.135292,-1.456724 -0.401693,-2.098252 -0.26714,-0.64276 -0.648416,-1.205819 -1.132761,-1.673683 -0.484344,-0.468109 -1.074956,-0.839793 -1.754613,-1.10521 -0.67892,-0.265173 -1.439505,-0.399234 -2.261095,-0.399234 -0.820852,0 -1.582667,0.133078 -2.263554,0.395544 -0.682609,0.262957 -1.275678,0.634888 -1.762483,1.10521 -0.48705,0.470078 -0.86931,1.034368 -1.136943,1.677373 -0.266401,0.641528 -0.401447,1.347506 -0.401447,2.098252 0,0.751238 0.135046,1.45697 0.401447,2.098252 0.267385,0.642761 0.649893,1.207297 1.136943,1.677374 0.48705,0.470569 1.079874,0.842499 1.762483,1.105456 0.680887,0.262467 1.442456,0.395545 2.263554,0.395545 0.82159,0 1.582175,-0.133078 2.260603,-0.39579 0.680149,-0.263204 1.270761,-0.635134 1.755597,-1.105456 0.484344,-0.470078 0.865129,-1.034368 1.132269,-1.677129 0.266401,-0.641282 0.401693,-1.347014 0.401693,-2.098252 z m -78.2822787,7.38e-4 c 0,2.007975 1.037614,3.700847 2.9719911,4.620093 0.9196397,0.437115 1.9232095,0.650876 2.9136927,0.650876 1.4004174,0 2.8398973,-0.454581 3.9055043,-1.285764 v -2.379662 l -0.081693,-0.02361 c -0.6589199,1.128582 -1.9672159,1.900974 -3.4801962,1.900974 -2.6303179,0 -3.943878,-1.878835 -3.943878,-3.524474 0,-0.584953 0.1581487,-1.172857 0.44971,-1.655726 0.6555255,-1.13891 1.9726769,-1.918191 3.4942173,-1.918191 1.5331755,0 2.8558862,0.792809 3.5057787,1.945987 l 0.056032,-0.01648 -0.00151,-2.35211 C 8.1682484,30.398118 5.376835,30.135652 3.1297617,31.206424 1.2172035,32.118045 0.18876465,33.901191 0.18876465,35.855542 Z m 21.6848107,3.515866 v -8.69459 h -3.175175 l -0.0211,0.0679 c 0.494628,0.28682 0.842253,0.802158 0.848821,1.397933 9.84e-4,0.05855 0,2.829567 0,2.829567 h -4.607792 v -4.303265 h -3.191411 l -0.02563,0.07576 c 0.494406,0.28682 0.840212,0.823805 0.847025,1.41958 0.0025,0.06076 0.0015,8.837999 0.0015,8.837999 h 3.187228 l 0.01633,-0.05215 c -0.33308,-0.209331 -0.83521,-0.661697 -0.83521,-1.578729 v -2.734126 h 4.607793 v 4.364268 l 3.166566,4.92e-4 0.01589,-0.05215 c -0.332622,-0.209333 -0.834996,-0.6617 -0.834996,-1.578732 z m 43.251548,0.05855 v -8.760021 h -3.183046 l -0.02091,0.06814 c 0.494429,0.286572 0.843974,0.8302 0.850861,1.425975 0.0044,0.04723 -0.0025,8.838245 -0.0025,8.838245 l 3.170501,9.83e-4 0.01599,-0.05239 C 65.630361,40.746477 65.14626,40.30641 65.124614,39.429719 Z m -6.906767,-4.701021 c -0.28731,0.743612 -1.058473,0.961309 -1.83923,0.959586 h -1.299786 v -3.232242 h 1.299786 c 1.321185,0 2.356782,1.006078 1.83923,2.272656 z m 1.40359,-3.125978 c -0.880381,-0.708193 -1.999367,-0.928104 -3.24282,-0.933024 h -4.490949 l -0.02115,0.06814 c 0.494675,0.286572 0.829215,0.802649 0.836103,1.398425 0.0044,0.04748 0.0099,0.09348 0.01279,0.143902 v 8.721893 h 3.187719 l 0.01624,-0.05215 C 55.586841,40.740807 55.08454,40.288441 55.08454,39.371409 v -1.882771 h 1.294373 c 1.67196,0.0082 3.351792,-0.515832 4.025544,-2.065784 0.518783,-1.246897 0.318552,-2.936077 -0.782724,-3.8199 z m -31.156463,5.278592 c 0,0 1.416627,-3.674524 1.427204,-3.707486 0.0015,0.0036 0.003,0.0071 0.0039,0.01083 l 0.0034,-0.01083 c 0.01058,0.03296 1.427452,3.707486 1.427452,3.707486 z m 6.784266,3.553011 C 34.99764,40.12216 34.919662,39.90102 34.741569,39.542619 c -0.03173,-0.06396 -0.06322,-0.130864 -0.09077,-0.196788 l -3.620649,-8.67688 h -2.267982 l -3.661733,8.775764 c -0.215237,0.418174 -0.283621,0.649892 -0.5575,0.989845 -0.279759,0.347084 -0.636217,0.513124 -0.648688,0.513124 l 0.01677,0.05387 c 0.150887,0 0.333087,-2.47e-4 0.333087,-2.47e-4 h 2.00778 c 0.359137,0 0.705239,-0.22606 0.82282,-0.53477 l 0.747548,-1.922619 h 4.1478 l 0.747548,1.922619 c 0.117827,0.30871 0.456549,0.53477 0.82282,0.53477 0,0 2.190005,2.47e-4 2.34104,2.47e-4 l 0.01672,-0.05387 c -0.01255,0 -0.369224,-0.16604 -0.648662,-0.513124 z M 50.21575,26.459406 c -4.92e-4,0 -9.84e-4,-2.46e-4 -0.0015,-2.46e-4 -4.91e-4,0 -9.84e-4,2.46e-4 -0.002,2.46e-4 z m 17.500605,-3.763571 v 2.046841 c 0,0.327652 0.277226,0.604631 0.605123,0.604631 0.327652,0 0.604878,-0.276979 0.604878,-0.604631 v -2.046841 c 0,-2.077098 -1.487226,-3.527425 -3.616226,-3.527425 -1.996661,0 -3.502336,1.5224 -3.502336,3.5412 v 3.63984 h 1.209508 v -3.63984 c 0,-1.420564 0.955407,-2.375231 2.377692,-2.375231 1.301999,0 2.321361,1.037072 2.321361,2.361456 z m 6.51024,-2.403766 c 0.803879,0 1.272726,0.253118 1.479845,0.403415 0.09496,0.0701 0.21573,0.110448 0.331342,0.110448 0.309944,0 0.562324,-0.245494 0.562324,-0.54781 0,-0.189654 -0.08289,-0.357415 -0.22729,-0.460237 -0.462945,-0.331588 -0.975578,-0.629475 -2.146221,-0.629475 -1.595213,0 -2.753311,0.889727 -2.753311,2.115224 0,1.27617 0.925641,2.100712 2.357767,2.100712 h 0.81298 c 0.501072,0 1.098569,0.162105 1.098569,0.934989 0,0.617178 -0.611764,1.048143 -1.487471,1.048143 -0.815195,0 -1.490669,-0.22729 -2.065044,-0.695646 l -0.07945,-0.06444 -0.801419,0.852338 0.09201,0.07429 c 0.760339,0.617177 1.773552,0.956882 2.853918,0.956882 1.629897,0 2.72527,-0.872754 2.72527,-2.171556 0,-1.231154 -0.939173,-2.058402 -2.336368,-2.058402 h -0.81298 c -0.701549,0 -1.11997,-0.365534 -1.11997,-0.977299 0,-0.59307 0.609059,-0.991565 1.515514,-0.991565 z M 30.74628,24.506038 29.140244,20.966314 c -0.100118,-0.199987 -0.305267,-0.329374 -0.522472,-0.329374 -0.225076,0 -0.419897,0.110201 -0.510665,0.291738 l -1.591524,3.577115 -2.135715,-5.196188 h -1.357763 l 2.977894,6.873559 c 0.07109,0.175634 0.290755,0.307727 0.511403,0.307727 0.19236,0 0.435147,-0.0979 0.510912,-0.306497 l 1.581929,-3.65214 1.609234,3.653125 c 0.07232,0.162841 0.304284,0.305512 0.496152,0.305512 0.232701,0 0.423586,-0.11389 0.511403,-0.306497 l 2.97814,-6.874789 h -1.35833 z m 40.452239,-7.864879 c -0.227536,0 -0.424078,0.14095 -0.526162,0.379063 l -1.19229,2.93288 h 1.240996 l 1.017639,-2.497979 c 0.0305,-0.07577 0.05017,-0.174896 0.05017,-0.25238 0,-0.314616 -0.259269,-0.561584 -0.590364,-0.561584 z M 57.184013,19.16841 c -2.063813,0 -3.742908,1.639489 -3.742908,3.654353 0,2.022489 1.679095,3.668128 3.742908,3.668128 1.216889,0 2.350634,-0.64202 3.033243,-1.717467 l 0.05903,-0.09298 -1.041747,-0.658748 -0.05559,0.105035 c -0.384965,0.728116 -1.168428,1.198194 -1.994938,1.198194 -1.373581,0 -2.491091,-1.122676 -2.491091,-2.502159 0,-1.372351 1.11751,-2.488384 2.491091,-2.488384 1.092665,0 2.014125,0.773868 2.281757,1.898266 h -2.352601 c -0.320519,0 -0.562076,0.24746 -0.562076,0.57585 0,0.314616 0.24697,0.56183 0.562076,0.56183 h 3.672556 v -0.547562 c 0,-2.014864 -1.615629,-3.654353 -3.601712,-3.654353 z m -5.370836,7.251884 c 0.339213,0 0.604876,-0.259268 0.604876,-0.590364 v -3.910917 c 0,-1.516742 -1.235337,-2.750603 -2.753555,-2.750603 -0.826264,0 -1.631128,0.400709 -2.135643,1.054044 -0.521735,-0.66219 -1.31356,-1.054044 -2.14745,-1.054044 -1.518219,0 -2.753556,1.233861 -2.753556,2.750603 v 4.430437 h 1.209755 v -4.430437 c 0,-0.873984 0.692448,-1.584634 1.543801,-1.584634 0.836842,0 1.543803,0.725655 1.543803,1.583897 l -0.01402,2.881223 c 0,0.330603 0.265664,0.589625 0.60463,0.589625 0.339215,0 0.604878,-0.259022 0.604878,-0.589625 v -2.880486 c 0,-0.873984 0.692447,-1.584634 1.543803,-1.584634 0.837086,0 1.543801,0.725655 1.543801,1.584634 v 3.910917 c 0,0.331096 0.265663,0.590364 0.604877,0.590364 z M 37.875911,20.320111 c 0.708682,0 1.230908,0.287064 1.543801,0.527392 0.138736,0.107742 0.289033,0.16481 0.434902,0.16481 0.345118,0 0.576836,-0.305022 0.576836,-0.590117 0,-0.168993 -0.08266,-0.342413 -0.223109,-0.465651 -0.444495,-0.369962 -1.322171,-0.801911 -2.33243,-0.801911 -2.063816,0 -3.743155,1.645394 -3.743155,3.668129 0,2.022489 1.679339,3.668128 3.743155,3.668128 2.055942,0 3.728641,-1.645639 3.728641,-3.668128 0,-0.561092 -0.132341,-1.109392 -0.393085,-1.630635 l -0.0487,-0.09692 -1.102996,0.533541 0.04993,0.09938 c 0.159153,0.317074 0.243034,0.695645 0.243034,1.094633 0,1.403098 -1.087993,2.50216 -2.476823,2.50216 -1.39695,0 -2.491091,-1.099062 -2.491091,-2.50216 0,-1.403344 1.094141,-2.502652 2.491091,-2.502651 z m 3.748073,-9.634742 C 41.702205,10.006205 41.494103,9.3737768 40.989097,8.7514344 L 38.60501,5.8217531 37.424282,6.7801107 39.612811,9.4704493 c 0.381768,0.4673707 0.487297,0.7263927 0.451875,1.1093927 -0.02657,0.301577 -0.21081,0.612011 -0.505993,0.851354 -0.293705,0.23836 -0.635132,0.354956 -0.93671,0.319042 -0.381769,-0.04378 -0.613733,-0.199739 -0.99378,-0.668587 l -2.189512,-2.6891085 -1.180729,0.9588498 2.384579,2.9301737 c 0.50673,0.620866 1.084302,0.9527 1.765435,1.015427 0.08068,0.0073 0.15989,0.01156 0.239098,0.0123 0.659977,0.0056 1.272972,-0.226553 1.867026,-0.706962 0.661945,-0.539937 1.02502,-1.166953 1.109884,-1.916962 z m 8.377758,0.119057 c -4.464627,0 -8.515017,1.995431 -10.985937,4.946021 l 0.783709,0.966967 c 2.243874,-2.789225 6.060825,-4.706924 10.202228,-4.706924 4.141405,0 7.958354,1.917699 10.20223,4.706924 l 0.783709,-0.966967 C 58.51676,12.799857 54.466125,10.804426 50.001742,10.804426 Z m 12.028915,3.682396 1.80676,-6.2108763 C 63.909246,8.0572643 63.961393,7.7342861 63.594384,7.4518954 L 63.361927,7.273064 C 62.998854,6.9936254 62.711543,7.113666 62.501718,7.2494515 l -5.44291,3.5185705 1.422531,0.803879 3.47011,-2.2414148 -0.598235,2.0143718 -0.526408,-0.395298 -0.909406,0.650629 1.12907,0.842499 -0.262219,0.904734 z M 55.068788,5.0072965 57.36063,5.6003665 57.722721,4.2044014 55.366429,3.5943586 C 54.074763,3.2603105 53.190201,3.7431794 52.876323,4.9541632 l -0.962538,3.7094543 c -0.04477,0.1719437 -0.02631,0.3340487 0.05264,0.4683563 0.07872,0.1343076 0.211794,0.2285196 0.383737,0.273044 l 0.875215,0.2265513 0.619881,-2.3990926 2.652458,0.6862982 0.357908,-1.3802213 -2.652949,-0.6865441 0.103068,-0.3962824 C 54.442265,4.9295653 54.59945,4.8857799 55.068788,5.0072965 Z M 65.678123,7.1968088 C 66.12434,7.5815297 66.55137,7.9819935 66.959705,8.395002 L 67.768996,7.3970411 C 67.367302,6.9955931 66.948882,6.6059533 66.513243,6.2303335 61.986133,2.3267976 56.122096,0.17713436 50.001742,0.17713436 c -6.120353,0 -11.984391,2.14966324 -16.511498,6.05319914 -0.43564,0.3756198 -0.854061,0.7652596 -1.255754,1.1667076 l 0.809045,0.997715 C 33.452116,7.9817477 33.8789,7.5815297 34.325117,7.1968088 38.620261,3.4932585 44.187886,1.4535505 50.001742,1.4535505 c 5.813856,0 11.381236,2.039708 15.676381,5.7432583 z M 47.632907,2.9604552 43.808578,3.7357992 c -0.174649,0.035419 -0.312648,0.1229928 -0.398989,0.252873 -0.08634,0.1301261 -0.113152,0.2910002 -0.07773,0.4654033 l 0.762307,3.7510264 c 0.123976,0.6097967 0.397758,1.0493724 0.813964,1.305935 0.275012,0.1694833 0.605123,0.2543487 0.985662,0.2541021 0.193344,-2.455e-4 0.400465,-0.022632 0.619637,-0.067151 L 48.903422,9.2133976 48.615866,7.7975078 46.290569,8.2690611 C 45.814834,8.365484 45.660109,8.3130943 45.55163,7.7793047 L 45.469716,7.3766285 48.159321,6.8315252 47.874963,5.4316246 45.185361,5.9767269 44.981194,4.9721245 47.920469,4.3761024 Z"
     fill="#0050a0"
     id="path2"
     sodipodi:nodetypes="ccccccccccccccccccccccccccccccccccscccccccccsscccsscsccccsccccccccscccccccscscccscccccccccccccccccccscccccccccccccccccccccsccccccscccccccsccccccccccccccscscccccccscccccccccccccccscccscccscccscccscscccscccscccscccsccscccsscsccccccccccccccccccccsccccccccccccccccccccsccccccccccsccccccccccccccccccccscccccccccsccsssssssccsssscsscssssssccccssssssccscccccscccsccccsccccsssssscccssscssscsssssscssccssccsssssssscsscssssccccssssccccccccccccccccsccsccscccccccccccccccccccccccccccccccccsscccscccccccccccccccccccc"
     style="stroke-width:0.245985" />
</svg>
