<?xml version="1.0" encoding="UTF-8" standalone="no"?>
<!-- Created with Inkscape (http://www.inkscape.org/) -->

<svg
   width="240"
   height="400"
   viewBox="0 0 63.499998 105.83334"
   version="1.1"
   id="svg1"
   xml:space="preserve"
   inkscape:version="1.4 (e7c3feb1, 2024-10-09)"
   sodipodi:docname="eo.svg"
   xmlns:inkscape="http://www.inkscape.org/namespaces/inkscape"
   xmlns:sodipodi="http://sodipodi.sourceforge.net/DTD/sodipodi-0.dtd"
   xmlns="http://www.w3.org/2000/svg"
   xmlns:svg="http://www.w3.org/2000/svg"><sodipodi:namedview
     id="namedview1"
     pagecolor="#ffffff"
     bordercolor="#000000"
     borderopacity="0.25"
     inkscape:showpageshadow="2"
     inkscape:pageopacity="0.0"
     inkscape:pagecheckerboard="0"
     inkscape:deskcolor="#d1d1d1"
     inkscape:document-units="mm"
     inkscape:zoom="0.89887065"
     inkscape:cx="196.91376"
     inkscape:cy="136.28212"
     inkscape:window-width="1200"
     inkscape:window-height="1186"
     inkscape:window-x="1230"
     inkscape:window-y="151"
     inkscape:window-maximized="0"
     inkscape:current-layer="layer1" /><defs
     id="defs1" /><g
     inkscape:label="Layer 1"
     inkscape:groupmode="layer"
     id="layer1"
     transform="translate(-53.054383,-112.58021)"><g
       style="fill:none"
       id="g1"
       transform="matrix(0.2376248,0,0,0.2376248,56.361675,115.70917)"><path
         d="M 88.0597,70.0107 37.5569,86.4201 42.7955,102.543 92.1158,86.5172 C 90.9955,80.9854 89.6013,75.469 88.0597,70.0107 Z"
         fill="#d5fe00"
         id="path1" /><path
         d="m 158.543,47.1095 c -2.812,6.9317 -5.293,13.7044 -7.426,20.2374 l 26.478,-8.6034 -5.238,-16.1224 z"
         fill="#d5fe00"
         id="path2" /><path
         d="M 143.61,97.0768 213.274,74.4415 208.036,58.3193 147.933,77.848 c -1.892,6.7946 -3.349,13.2443 -4.323,19.2288 z"
         fill="#d5fe00"
         id="path3" /><path
         d="m 94.9193,112.897 c 9e-4,-0.6 0,-1.203 -0.0053,-1.809 -0.0439,-5.166 -0.5018,-10.381 -1.2495,-15.6073 l -20.4283,6.6373 5.2383,16.123 z"
         fill="#d5fe00"
         id="path4" /><path
         d="m 94.7158,121.321 -41.4435,13.466 5.238,16.123 34.3997,-11.177 c 0.8539,-5.707 1.4966,-11.861 1.8058,-18.412 z"
         fill="#d5fe00"
         id="path5" /><path
         d="m 142.157,113.236 c 0,3.479 0.111,6.946 0.314,10.393 l 50.839,-16.518 -5.238,-16.1228 -45.569,14.8058 c -0.227,2.601 -0.346,5.088 -0.346,7.442 z"
         fill="#d5fe00"
         id="path6" /><path
         d="m 91.191,149.767 -63.2848,20.553 5.239,16.123 52.7809,-17.143 c 1.7944,-5.323 3.6724,-11.889 5.2649,-19.533 z"
         fill="#d5fe00"
         id="path7" /><path
         d="m 143.255,132.841 c 0.645,5.751 1.584,11.406 2.78,16.921 l 21.91,-7.119 -5.239,-16.122 z"
         fill="#d5fe00"
         id="path8" /><path
         d="M 170.644,0.0173903 92.8916,12.3321 c -0.8225,0.1302 -1.3252,0.9757 -1.0462,1.7605 L 94.3966,21.2753 150.09,6.9166 c 0.135,-0.03454 0.193,0.16389 0.06,0.20685 L 82.8809,28.9802 c -0.7396,0.2405 -1.1121,1.0599 -0.8114,1.7769 5.1745,12.3342 9.6324,24.8734 13.0362,36.964 L 145.776,51.2577 c 0.357,-0.1165 0.567,0.3915 0.232,0.5612 L 97.3849,76.4473 c 0.6365,2.6278 1.2273,5.2299 1.7477,7.7899 L 138.936,71.3043 c 0.416,-0.1351 0.669,0.4477 0.286,0.659 l -38.5,21.2238 c 0.413,2.7394 0.736,5.4133 0.985,8.0299 l 32.501,-10.5527 c 0.439,-0.1426 0.714,0.4642 0.317,0.6989 -8.514,5.0403 -32.214,19.0738 -32.302,19.1608 -0.009,0.009 0.022,0 0.022,0.013 0.023,2.801 -0.039,5.62 -0.132,8.381 l 29.845,-9.698 c 0.417,-0.135 0.681,0.44 0.306,0.668 l -30.697,18.674 c -0.238,2.911 -0.545,5.816 -0.901,8.65 l 31.6,-10.267 c 0.391,-0.127 0.634,0.414 0.28,0.622 l -33.3983,19.605 c -0.5479,3.047 -1.1649,6.033 -1.8465,8.958 h 4e-4 l 37.1344,-12.066 c 0.323,-0.105 0.518,0.349 0.22,0.512 l -40.1203,21.919 c -2.4108,7.96 -5.3189,15.332 -8.6656,21.937 -0.45,0.888 0.1825,1.937 1.1782,1.937 h 63.7567 c 1.002,0 1.634,-1.061 1.171,-1.949 -10.475,-20.11 -17.149,-46.526 -17.149,-75.185 0,-29.5983 16.412,-73.5067 37.185,-111.26748 0.533,-0.96909 -0.276,-2.123308 -1.368,-1.9501297 z"
         fill="#000000"
         id="path9" /><path
         d="m 215.88,346.052 5.98,-15.924 4.678,12.461 z m 17.81,15.582 h 11.269 l -17.994,-43.585 h -10.211 l -17.994,43.585 h 11.269 l 1.956,-5.209 17.602,-5.719 z m -132.95,-23.937 -8.5907,2.791 v -13.846 h 7.1601 c 4.2346,0 6.3506,2.366 6.3506,5.541 0,2.703 -1.658,4.453 -4.92,5.514 z m 6.633,7.037 c 4.952,-1.976 8.001,-6.865 8.001,-12.551 0,-8.846 -6.725,-14.134 -16.0022,-14.134 H 82.0629 v 43.584 h 10.0864 v -11.916 l 6.1569,-2.001 7.9768,13.918 h 10.772 z m 58.211,50.162 -7.849,2.55 v -14.434 h 6.226 c 4.421,0 6.476,2.241 6.476,6.039 0,3.079 -1.748,4.836 -4.853,5.845 z m 14.94,-5.845 c 0,-9.464 -7.348,-14.632 -15.94,-14.632 h -16.935 v 43.584 h 10.086 v -11.121 l 12.391,-4.027 c 7.357,-2.39 10.398,-7.56 10.398,-13.804 z m 7.017,-50.526 -7.85,2.551 v -14.434 h 6.227 c 4.421,0 6.475,2.241 6.475,6.039 0,3.078 -1.747,4.835 -4.852,5.844 z m 14.939,-5.844 c 0,-9.464 -7.347,-14.632 -15.939,-14.632 h -16.936 v 43.584 h 10.086 v -11.122 l 12.391,-4.026 c 7.357,-2.39 10.398,-7.56 10.398,-13.804 z M 10.0868,344.2 h 14.4265 l 2.9551,-9.091 H 10.0868 v -7.969 h 20.4846 v -9.091 H 0 v 43.584 h 31.0697 v -9.09 H 10.0868 Z M 119.681,302.77 c -10e-4,0 -0.003,-10e-4 -0.005,-10e-4 -0.002,0 -0.004,10e-4 -0.006,10e-4 z m 63.456,-13.663 v 7.431 c 0,1.189 1.005,2.194 2.194,2.194 1.188,0 2.192,-1.005 2.192,-2.194 v -7.431 c 0,-7.538 -5.391,-12.803 -13.111,-12.803 -7.239,0 -12.7,5.526 -12.7,12.854 v 13.213 h 4.386 v -13.213 c 0,-5.157 3.465,-8.622 8.622,-8.622 4.72,0 8.417,3.765 8.417,8.571 z m 23.606,-8.725 c 2.914,0 4.613,0.919 5.365,1.465 0.343,0.254 0.781,0.401 1.201,0.401 1.124,0 2.039,-0.893 2.039,-1.989 0,-0.689 -0.3,-1.298 -0.823,-1.67 -1.68,-1.204 -3.538,-2.285 -7.782,-2.285 -5.785,0 -9.984,3.229 -9.984,7.677 0,4.633 3.356,7.626 8.549,7.626 h 2.947 c 1.817,0 3.984,0.589 3.984,3.394 0,2.241 -2.218,3.805 -5.394,3.805 -2.955,0 -5.404,-0.825 -7.487,-2.524 l -0.288,-0.235 -2.906,3.094 0.333,0.27 c 2.756,2.239 6.432,3.473 10.348,3.473 5.911,0 9.882,-3.168 9.882,-7.883 0,-4.469 -3.405,-7.472 -8.472,-7.472 h -2.947 c -2.543,0 -4.061,-1.326 -4.061,-3.548 0,-2.152 2.209,-3.599 5.496,-3.599 z m -157.6597,15.297 -5.8234,-12.85 c -0.3627,-0.725 -1.1064,-1.195 -1.8943,-1.195 -0.8163,0 -1.5223,0.4 -1.8513,1.059 l -5.7712,12.985 -7.7434,-18.862 h -4.9229 l 10.7972,24.951 c 0.2583,0.637 1.0546,1.117 1.8545,1.117 0.6976,0 1.5777,-0.355 1.8527,-1.113 l 5.7357,-13.256 5.8353,13.26 c 0.2618,0.591 1.1024,1.109 1.7991,1.109 0.8429,0 1.5347,-0.414 1.8527,-1.113 l 10.7995,-24.955 h -4.9256 z m 146.6747,-28.55 c -0.824,0 -1.536,0.512 -1.906,1.376 l -4.324,10.647 h 4.5 l 3.69,-9.067 c 0.111,-0.276 0.182,-0.636 0.182,-0.917 0,-1.143 -0.941,-2.039 -2.142,-2.039 z m -50.814,9.175 c -7.483,0 -13.572,5.951 -13.572,13.264 0,7.342 6.089,13.316 13.572,13.316 4.412,0 8.524,-2.331 10.998,-6.234 l 0.214,-0.337 -3.777,-2.392 -0.202,0.381 c -1.396,2.643 -4.235,4.349 -7.233,4.349 -4.981,0 -9.033,-4.074 -9.033,-9.083 0,-4.981 4.052,-9.032 9.033,-9.032 3.962,0 7.303,2.809 8.272,6.89 h -8.528 c -1.163,0 -2.039,0.9 -2.039,2.091 0,1.143 0.896,2.039 2.039,2.039 h 13.315 v -1.988 c 0,-7.313 -5.858,-13.264 -13.059,-13.264 z m -19.474,26.324 c 1.229,0 2.193,-0.942 2.193,-2.143 v -14.197 c 0,-5.505 -4.479,-9.984 -9.984,-9.984 -2.997,0 -5.915,1.454 -7.743,3.826 -1.892,-2.405 -4.764,-3.826 -7.788,-3.826 -5.5041,0 -9.9832,4.479 -9.9832,9.984 v 16.083 h 4.3861 v -16.083 c 0,-3.172 2.5109,-5.752 5.5971,-5.752 3.035,0 5.598,2.634 5.598,5.75 l -0.051,10.458 c 0,1.201 0.964,2.141 2.193,2.141 1.23,0 2.194,-0.94 2.194,-2.141 v -10.456 c 0,-3.172 2.51,-5.752 5.597,-5.752 3.035,0 5.598,2.634 5.598,5.752 v 14.197 c 0,1.201 0.963,2.143 2.193,2.143 z M 74.9347,280.485 c 2.5693,0 4.4632,1.041 5.5979,1.913 0.5023,0.392 1.048,0.598 1.5777,0.598 1.2508,0 2.0905,-1.107 2.0905,-2.141 0,-0.614 -0.2998,-1.243 -0.8096,-1.691 -1.6118,-1.343 -4.7937,-2.911 -8.4565,-2.911 -7.4834,0 -13.5721,5.974 -13.5721,13.315 0,7.342 6.0887,13.316 13.5721,13.316 7.4546,0 13.5203,-5.974 13.5203,-13.316 0,-2.036 -0.4802,-4.027 -1.4262,-5.918 l -0.1758,-0.352 -3.9995,1.936 0.1816,0.362 c 0.5762,1.151 0.8805,2.524 0.8805,3.972 0,5.094 -3.9446,9.083 -8.9809,9.083 -5.0647,0 -9.0327,-3.989 -9.0327,-9.083 0,-5.094 3.968,-9.083 9.0327,-9.083 z m 13.5911,-34.974 c 0.2822,-2.466 -0.4712,-4.763 -2.3031,-7.022 l -8.6443,-10.634 -4.2803,3.479 7.9352,9.766 c 1.3832,1.696 1.7659,2.637 1.6379,4.027 -0.097,1.095 -0.7654,2.221 -1.835,3.09 -1.0643,0.866 -2.3022,1.288 -3.3962,1.159 -1.3841,-0.159 -2.2256,-0.726 -3.6035,-2.428 l -7.9388,-9.761 -4.2811,3.48 8.646,10.637 c 1.8376,2.253 3.9322,3.459 6.4018,3.686 0.2915,0.027 0.5803,0.041 0.8664,0.044 2.3935,0.021 4.6155,-0.822 6.7694,-2.566 2.4001,-1.96 3.7169,-4.236 4.0256,-6.957 z m 30.3762,0.431 c -16.188,0 -30.8749,7.243 -39.8336,17.955 l 2.8417,3.509 c 8.1358,-10.125 21.9759,-17.087 36.9919,-17.087 15.016,0 28.856,6.962 36.992,17.087 l 2.842,-3.509 c -8.959,-10.712 -23.646,-17.955 -39.834,-17.955 z m 43.616,13.367 6.551,-22.546 c 0.259,-0.793 0.449,-1.966 -0.881,-2.99 l -0.844,-0.65 c -1.316,-1.014 -2.358,-0.579 -3.118,-0.086 l -19.736,12.772 5.158,2.919 12.582,-8.137 -2.168,7.312 -1.91,-1.434 -3.296,2.362 4.093,3.058 -0.951,3.284 z m -25.243,-34.411 8.31,2.153 1.312,-5.067 -8.544,-2.214 c -4.683,-1.214 -7.89,0.539 -9.029,4.935 l -3.489,13.466 c -0.162,0.625 -0.096,1.212 0.19,1.7 0.287,0.487 0.768,0.83 1.392,0.991 l 3.173,0.822 2.248,-8.709 9.617,2.492 1.298,-5.01 -9.618,-2.492 0.373,-1.439 c 0.495,-1.909 1.064,-2.07 2.767,-1.628 z m 38.467,7.948 c 1.619,1.397 3.167,2.85 4.648,4.35 l 2.934,-3.623 c -1.457,-1.457 -2.974,-2.871 -4.553,-4.235 -16.415,-14.17 -37.677,-21.973 -59.869,-21.973 -22.1925,0 -43.4544,7.803 -59.8696,21.973 -1.5794,1.364 -3.0959,2.778 -4.5526,4.235 l 2.9333,3.622 c 1.4811,-1.5 3.0291,-2.952 4.6475,-4.349 15.5741,-13.444 35.761,-20.847 56.8414,-20.847 21.08,0 41.267,7.403 56.84,20.847 z m -65.429,-15.378 -13.867,2.815 c -0.633,0.128 -1.1335,0.446 -1.4462,0.918 -0.3135,0.472 -0.411,1.056 -0.2821,1.689 l 2.7638,13.616 c 0.4491,2.214 1.4421,3.809 2.9515,4.741 0.997,0.615 2.194,0.923 3.573,0.922 0.702,-0.001 1.452,-0.082 2.247,-0.243 l 8.666,-1.759 -1.043,-5.14 -8.431,1.712 c -1.725,0.35 -2.285,0.159 -2.679,-1.778 l -0.296,-1.462 9.752,-1.979 -1.032,-5.082 -9.752,1.979 -0.74,-3.646 10.658,-2.163 z M 87.4013,401.866 c -0.6848,4.295 -3.4857,8.03 -9.3366,8.03 -6.2866,0 -11.0794,-5.043 -11.0794,-13.695 0,-5.103 1.6804,-8.901 4.1705,-11.079 0,0 2.9617,-2.614 7.0954,-2.614 5.229,0 7.8431,2.551 8.9012,7.469 h 10.2082 c -0.1865,-7.345 -5.7264,-16.557 -19.0469,-16.557 -12.262,0 -21.4121,8.652 -21.4121,22.781 0,14.067 9.0256,22.782 21.1631,22.782 12.6983,0 18.6111,-8.715 19.4203,-17.117 z M 37.4782,344.577 V 318.053 H 47.565 v 26.649 c 0,5.852 3.1132,8.841 8.3436,8.841 5.2299,0 8.3431,-2.989 8.3431,-8.841 v -26.649 h 10.0868 v 26.524 c 0,12.079 -8.1566,18.056 -18.4299,18.056 -10.2738,0 -18.4304,-5.915 -18.4304,-18.056 z m 65.5848,56.367 v -26.525 h 10.087 v 26.649 c 0,5.853 3.113,8.841 8.343,8.841 5.23,0 8.344,-2.988 8.344,-8.841 v -26.649 h 10.086 v 26.525 c 0,12.079 -8.156,18.056 -18.43,18.056 -10.273,0 -18.43,-5.915 -18.43,-18.056 z m 50.099,-61.102 c 0,-8.78 -4.981,-13.699 -11.394,-13.699 -6.414,0 -11.395,4.919 -11.395,13.699 0,8.779 4.981,13.697 11.395,13.697 6.413,0 11.394,-4.918 11.394,-13.697 z m -32.875,0 c 0,-14.134 9.215,-22.789 21.481,-22.789 12.266,0 21.48,8.655 21.48,22.789 0,14.133 -9.214,22.788 -21.48,22.788 -12.266,0 -21.481,-8.655 -21.481,-22.788 z"
         fill="#000000"
         id="path10" /></g></g></svg>
