<?xml version="1.0" encoding="utf-8"?>
<!-- Generator: Adobe Illustrator 14.0.0, SVG Export Plug-In . SVG Version: 6.00 Build 43363)  -->
<!DOCTYPE svg PUBLIC "-//W3C//DTD SVG 1.1//EN" "http://www.w3.org/Graphics/SVG/1.1/DTD/svg11.dtd">
<svg version="1.1" id="Ebene_1" xmlns="http://www.w3.org/2000/svg" xmlns:xlink="http://www.w3.org/1999/xlink" x="0px" y="0px"
	 width="256px" height="256px" viewBox="269.5 139.5 256 256" enable-background="new 269.5 139.5 256 256" xml:space="preserve">
<path fill="#AA1124" d="M272.5,266.996c-0.005-68.762,55.729-124.498,124.49-124.496c68.76,0.002,124.503,55.746,124.51,124.506
	c0.008,68.758-55.729,124.496-124.488,124.494C328.248,391.499,272.506,335.755,272.5,266.996L272.5,266.996z"/>
<path fill="none" stroke="#FFFFFF" stroke-width="4.4761" stroke-miterlimit="3.8637" d="M285.5,266.426
	c-0.004-61.188,49.593-110.788,110.779-110.785c61.186,0.002,110.793,49.606,110.797,110.793
	c0.005,61.189-49.594,110.788-110.78,110.786C335.109,377.217,285.505,327.614,285.5,266.426L285.5,266.426z"/>
<polygon fill="#FFFFFF" points="311.226,323.491 323.445,323.492 323.443,291.297 355.015,291.297 355.015,280.938 323.443,280.937 
	323.439,261.945 359.41,261.948 359.409,250.979 311.22,250.977 "/>
<path fill="#FFFFFF" d="M420.674,274.033c-1.47-15.639-13.883-24.679-29.621-24.78c-20.916-0.003-33.429,17.263-33.427,37.981
	c0.001,20.719,12.513,37.984,33.433,37.986c16.912,0,28.738-11.987,29.715-29.351h-11.927c-0.977,10.561-6.939,18.991-17.79,18.99
	c-14.952,0-21.212-13.712-21.212-27.626c-0.002-13.914,6.256-27.624,21.208-27.624c10.167,0,15.346,6.095,17.402,14.423H420.674
	L420.674,274.033z"/>
<polygon fill="#FFFFFF" points="423.577,323.496 435.207,323.497 435.203,270.175 435.499,270.175 467.27,323.498 480.172,323.498 
	480.167,250.98 468.536,250.98 468.537,304.403 468.345,304.403 436.472,250.98 423.569,250.979 "/>
<path fill="#FFFFFF" d="M371.171,190.994l16.813,0.002l0.005,50.174h12.218l-0.006-71.094h-9.09
	c-1.661,8.529-10.555,11.882-19.938,11.78v9.138H371.171z"/>
<polygon fill="#FFFFFF" points="404.57,241.17 418.156,241.17 418.156,227.459 404.568,227.458 "/>
</svg>
