<svg width="60" height="80" viewBox="0 0 60 80" fill="none" xmlns="http://www.w3.org/2000/svg">
<g clip-path="url(#clip0_592_2128)">
<path d="M14.4523 16.0782L15.3311 17.061L14.9816 18.2905L14.1132 17.3514L14.4523 16.0782Z" fill="#CAA946"/>
<path d="M37.8082 6.54178C37.8082 6.01247 38.2373 5.58595 38.7666 5.58595C39.2959 5.58595 39.7237 6.01376 39.7237 6.54178C39.7237 7.0698 39.2946 7.49761 38.7666 7.49761C38.2386 7.49761 37.8082 7.0698 37.8082 6.54178ZM29.6143 5.97522C28.9231 5.97522 28.3604 5.41508 28.3604 4.72262C28.3604 4.03016 28.9218 3.47002 29.6143 3.47002C30.3068 3.47002 30.8695 4.03144 30.8695 4.72262C30.8695 5.4138 30.3068 5.97522 29.6143 5.97522ZM20.462 7.49761C19.9327 7.49761 19.5036 7.0698 19.5036 6.54178C19.5036 6.01376 19.9314 5.58595 20.462 5.58595C20.9926 5.58595 21.4191 6.01376 21.4191 6.54178C21.4191 7.0698 20.99 7.49761 20.462 7.49761ZM48.957 4.59929C47.2804 4.59929 46.8192 6.68181 46.8192 6.68181C46.8192 6.68181 46.3092 5.79921 45.2724 5.79921C44.0892 5.79921 43.3903 6.60601 43.3903 7.6582C43.3903 8.71038 44.3564 9.21913 44.5697 9.43368C45.1273 10.1184 44.535 10.4692 44.0108 10.2007C43.6537 10.0992 40.1567 9.18187 39.6711 9.18187C38.8514 9.11892 39.0248 8.57805 39.5156 8.57805C39.7404 8.5909 39.9203 8.6076 40.0475 8.6076C40.9211 8.6076 41.4876 7.95754 41.4876 7.32931C41.4876 5.99449 40.3404 5.82491 40.3404 5.82491C40.3404 5.82491 40.6025 5.48446 40.6025 5.12731C40.6025 4.31793 39.9588 3.5638 39.0518 3.5638C37.4896 3.5638 37.5384 5.22494 37.5384 5.22494C37.5384 5.22494 37.3265 5.16328 37.2584 5.16328C36.8241 5.16328 35.8387 5.59751 35.8387 6.5816C35.8387 7.42052 36.5569 7.89202 36.9141 7.95754C37.4125 8.12326 37.5898 8.6076 36.9141 8.67184C36.607 8.62045 31.8844 8.25174 31.5157 8.25174C30.8129 8.25174 30.6536 7.09678 31.7662 7.10577C32.8479 7.10577 33.8731 6.27327 33.8731 5.06307C33.9078 3.01652 31.7829 2.88804 31.7829 2.88804C31.7829 2.88804 31.9242 2.43582 31.9242 2.16732C31.9242 0.847913 30.6857 0 29.613 0C28.5403 0 27.3044 0.847913 27.3044 2.16732C27.3044 2.43582 27.4431 2.88804 27.4431 2.88804C27.4431 2.88804 25.3182 3.01652 25.3529 5.06307C25.3529 6.27327 26.3781 7.10577 27.4598 7.10577C28.5724 7.09549 28.4157 8.25174 27.7116 8.25174C27.3429 8.25174 22.6177 8.62045 22.312 8.67184C21.6362 8.6076 21.8148 8.12326 22.312 7.95754C22.6704 7.8933 23.386 7.42052 23.386 6.5816C23.386 5.59751 22.4006 5.16328 21.9677 5.16328C21.8996 5.16328 21.6863 5.22494 21.6863 5.22494C21.6863 5.22494 21.7377 3.5638 20.1742 3.5638C19.2672 3.5638 18.6235 4.31665 18.6235 5.12731C18.6235 5.48317 18.8856 5.82491 18.8856 5.82491C18.8856 5.82491 17.7384 5.99449 17.7384 7.32931C17.7384 7.95882 18.3049 8.6076 19.1798 8.6076C19.3057 8.6076 19.4856 8.5909 19.7091 8.57805C20.2025 8.57805 20.3759 9.1202 19.555 9.18187C19.0706 9.18187 15.5723 10.1004 15.2165 10.2007C14.6923 10.4692 14.1013 10.1184 14.6576 9.43368C14.8722 9.21913 15.8383 8.71038 15.8383 7.6582C15.8383 6.60601 15.1394 5.79921 13.9549 5.79921C12.9181 5.79921 12.4081 6.68181 12.4081 6.68181C12.4081 6.68181 11.9482 4.59929 10.2716 4.59929C8.91108 4.59929 8.1698 4.99883 8.1698 4.99883C8.1698 4.99883 8.98816 6.32723 9.92472 7.84577C10.102 7.71601 10.3191 7.63893 10.5555 7.63893C11.1478 7.63893 11.6283 8.11813 11.6283 8.7091C11.6283 9.12278 11.3906 9.48378 11.045 9.66107C11.8492 10.9638 12.5301 12.0648 12.6175 12.201C13.22 12.9281 13.8791 12.7264 14.4495 12.6185C18.3165 11.0755 25.7846 10.2662 29.6143 10.3625C33.444 10.2662 40.9108 11.0768 44.7791 12.6185C45.3482 12.7264 46.006 12.9294 46.6098 12.201C46.6985 12.0661 47.3794 10.9638 48.1823 9.66107C47.8367 9.48378 47.6003 9.12406 47.6003 8.7091C47.6003 8.11813 48.0795 7.63893 48.6718 7.63893C48.9095 7.63893 49.1253 7.71601 49.3039 7.84577C50.2379 6.32723 51.0575 4.99883 51.0575 4.99883C51.0575 4.99883 50.3175 4.59929 48.957 4.59929Z" fill="#CAA946"/>
<path d="M22.6944 15.45C22.6944 15.9562 22.2846 16.3673 21.7746 16.3673C21.2646 16.3673 20.8573 15.9562 20.8573 15.45C20.8573 14.9438 21.2684 14.5314 21.7746 14.5314C22.2808 14.5314 22.6944 14.9425 22.6944 15.45Z" fill="#CAA946"/>
<path d="M29.6136 11.6755C33.8762 11.6755 41.1118 12.4952 45.2383 14.1242C45.0841 14.8385 44.9788 15.2393 44.8297 15.8329C41.3058 14.3284 33.7503 13.4099 29.6136 13.4099C25.4768 13.4099 17.9201 14.3284 14.3987 15.8329C14.2496 15.2393 14.143 14.8385 13.9901 14.1242C18.1153 12.4952 25.3509 11.6755 29.6136 11.6755Z" fill="#CAA946"/>
<path d="M29.614 16.2401C33.2652 16.2401 40.6176 17.0816 44.1917 18.5603C44.0748 19.0421 43.8846 19.9105 43.7562 20.3461C41.1019 19.1474 33.6223 17.9488 29.6127 17.9488C25.6031 17.9488 18.1248 19.1474 15.4693 20.3461C15.3421 19.9118 15.1519 19.0421 15.035 18.5603C18.6091 17.0816 25.9616 16.2401 29.6127 16.2401" fill="#CAA946"/>
<path d="M36.5311 15.45C36.5311 15.9562 36.9422 16.3673 37.4497 16.3673C37.9572 16.3673 38.3696 15.9562 38.3696 15.45C38.3696 14.9438 37.9572 14.5314 37.4497 14.5314C36.9422 14.5314 36.5311 14.9425 36.5311 15.45Z" fill="#CAA946"/>
<path d="M29.6131 13.6899L30.8695 14.85L29.6131 15.9665L28.3553 14.85L29.6131 13.6899Z" fill="#CAA946"/>
<path d="M44.7666 16.1142L43.8866 17.097L44.236 18.3278L45.1058 17.3886L44.7666 16.1142Z" fill="#CAA946"/>
<path d="M43.2023 23.9985C43.0919 22.6598 41.9831 21.6038 40.6355 21.6038C39.6167 21.6038 38.7354 22.2089 38.3166 23.0838C37.3813 22.9142 35.0829 22.6316 33.4822 22.4838L32.0125 22.2564C32.0047 22.2346 31.9996 22.2128 31.9893 22.1922C31.9739 22.1537 31.9559 22.1164 31.9379 22.0766C31.9238 22.0457 31.9084 22.0136 31.893 21.9841C31.875 21.9468 31.8544 21.9108 31.8326 21.8749C31.8159 21.8453 31.7992 21.8132 31.7786 21.7849C31.7568 21.7503 31.7362 21.7181 31.7118 21.6847C31.6913 21.6539 31.6681 21.6231 31.6463 21.5935C31.6245 21.564 31.6013 21.5319 31.5769 21.5036C31.5333 21.4496 31.4857 21.3982 31.4382 21.3469C31.4151 21.3237 31.3906 21.3032 31.3688 21.2813C31.338 21.2505 31.3046 21.2197 31.2712 21.1914C31.2468 21.1696 31.2198 21.1477 31.1928 21.1272C31.1607 21.1002 31.1247 21.0732 31.0887 21.0475C31.0643 21.0282 31.0361 21.0103 31.0104 20.9923C30.9693 20.9653 30.9282 20.9409 30.8883 20.9165C30.8639 20.9023 30.8395 20.8882 30.8151 20.8741C30.7496 20.8381 30.6815 20.806 30.6134 20.7764C30.6005 20.77 30.5838 20.7662 30.5723 20.7597C30.5132 20.7366 30.4541 20.7135 30.3963 20.6942C30.3693 20.6852 30.3449 20.6788 30.3179 20.6724C30.2704 20.657 30.2177 20.6428 30.1676 20.6326C30.1393 20.6261 30.1098 20.621 30.0828 20.6146C30.0289 20.6056 29.9787 20.5966 29.9222 20.5902C29.8978 20.5863 29.8721 20.5824 29.8477 20.5799C29.7655 20.5722 29.6871 20.567 29.6062 20.567C29.5252 20.567 29.4443 20.5709 29.3634 20.5799C29.339 20.5812 29.312 20.5863 29.2876 20.5902C29.2336 20.5953 29.1797 20.6043 29.127 20.6146C29.0987 20.621 29.0705 20.6261 29.0435 20.6326C28.9908 20.6441 28.9407 20.657 28.8919 20.6724C28.8649 20.6788 28.8405 20.6852 28.8135 20.6942C28.7557 20.7135 28.6966 20.7366 28.6388 20.7597C28.6259 20.7662 28.6105 20.77 28.5964 20.7764C28.5296 20.806 28.4615 20.8381 28.3973 20.8741C28.3703 20.8869 28.3484 20.9023 28.324 20.9165C28.2829 20.9409 28.2418 20.9653 28.202 20.9923C28.1763 21.0103 28.1467 21.0282 28.121 21.0475C28.0876 21.0719 28.0517 21.1002 28.0183 21.1272C27.9913 21.1477 27.9656 21.1683 27.9425 21.1901C27.9065 21.221 27.8744 21.2518 27.8423 21.2813C27.8191 21.3045 27.7973 21.325 27.7742 21.3469C27.7254 21.3982 27.6791 21.4496 27.6341 21.5036C27.6097 21.5319 27.5892 21.5627 27.5673 21.5922C27.5429 21.6218 27.5198 21.6526 27.498 21.6847C27.4761 21.7169 27.4543 21.749 27.4337 21.7824C27.4132 21.8132 27.3952 21.844 27.3759 21.8762C27.3579 21.9108 27.3374 21.9455 27.3194 21.9815C27.3027 22.0136 27.2885 22.047 27.2731 22.0791C27.2577 22.1164 27.2372 22.1524 27.2217 22.1896C27.214 22.2115 27.2063 22.2333 27.1986 22.2551L25.7276 22.4825C24.1294 22.6303 21.8324 22.9129 20.8945 23.0825C20.477 22.2076 19.5957 21.6025 18.5756 21.6025C17.2292 21.6025 16.1205 22.6586 16.01 23.9972L-0.00012207 28.3922L0.199009 29.8799C1.61605 40.4827 5.71044 50.9198 12.3678 60.9033C18.4394 70.0068 25.0891 76.3456 28.5129 79.3146L29.6049 80.264H29.6075L30.702 79.3146C34.1258 76.3456 40.7742 70.0068 46.8458 60.9033C53.5032 50.921 57.6002 40.4827 59.0146 29.8799L59.2125 28.3922L43.2023 23.9985Z" fill="#CAA946"/>
<path d="M29.6093 78.0144C38.028 70.7134 54.1936 53.249 57.3463 29.6513C54.579 28.892 42.7917 25.6584 42.7917 25.6584C42.4641 26.1607 41.9734 26.5435 41.394 26.7247V33.5375C42.4461 33.8664 43.2157 34.8647 43.2157 36.0402C43.2157 37.2157 42.4461 38.2139 41.394 38.5415V41.003C41.394 41.9319 40.997 45.267 40.4985 46.4836C40.4959 46.4888 40.4805 46.5222 40.4613 46.5723C40.9327 47.0476 41.2231 47.7041 41.2231 48.43C41.2231 49.8599 40.0874 51.0251 38.6806 51.0431L38.637 51.1664C37.861 53.0537 34.2792 57.6311 32.0977 58.9043C32.1222 58.9942 32.1414 59.0854 32.1556 59.1805C32.1594 59.2075 32.1633 59.2332 32.1658 59.2614C32.1697 59.2948 32.1735 59.3257 32.1761 59.3591C32.1813 59.431 32.1864 59.5017 32.1864 59.5736C32.1864 61.0163 31.0301 62.1906 29.6093 62.1906V78.0157V78.0144Z" fill="#00004C"/>
<path d="M29.6087 62.1893C28.1866 62.1893 27.0278 61.0151 27.0278 59.5736C27.0278 59.5004 27.0342 59.4297 27.0393 59.3591C27.0419 59.3257 27.0457 59.2935 27.0483 59.2601C27.0534 59.2319 27.0573 59.2062 27.0612 59.1792C27.0753 59.0841 27.0946 58.9929 27.1177 58.903C24.9375 57.6311 21.357 53.0537 20.5798 51.1664L20.5348 51.0444C19.1293 51.0251 17.9923 49.8599 17.9923 48.43C17.9923 47.7041 18.2853 47.0489 18.7555 46.5736C18.7349 46.5235 18.7208 46.4901 18.7182 46.4849C18.2197 45.2683 17.824 41.9319 17.824 41.0043V38.5415C16.7706 38.2152 16.001 37.217 16.001 36.0402C16.001 34.8634 16.7706 33.8664 17.824 33.5363V26.7234C17.2446 26.5423 16.7539 26.1594 16.425 25.6571C16.425 25.6571 4.63642 28.8907 1.86914 29.6513C5.02312 53.2489 21.1887 70.7134 29.6087 78.0144V62.1893Z" fill="#D70F27"/>
<path d="M28.0626 57.477C28.493 57.1493 29.03 56.9541 29.6081 56.9541C30.1863 56.9541 30.7156 57.1468 31.1472 57.4731L31.1524 57.477C32.8623 56.5982 36.3863 52.1993 37.0813 50.5061C36.466 50.0243 36.0664 49.2727 36.0664 48.4287C36.0664 46.9847 37.2239 45.8091 38.6448 45.8091C38.7463 45.8091 38.8452 45.8169 38.9403 45.8284C39.3155 44.9163 39.7073 41.8368 39.7073 41.0017V38.4773C38.7425 38.0983 38.0577 37.1489 38.0577 36.0389C38.0577 34.9289 38.7438 33.9782 39.7073 33.5992V26.663C38.9095 26.3457 38.307 25.6455 38.1207 24.786C36.9901 24.5625 32.879 24.0949 32.0234 24.0949C32.0221 24.0974 32.0183 24.1026 32.0157 24.1064L32.0247 24.0936C31.6611 25.0905 30.7143 25.801 29.6081 25.801C28.502 25.801 27.5552 25.0905 27.1903 24.0949L27.1967 24.1064C27.1967 24.1064 27.1929 24.0974 27.1903 24.0949C26.3347 24.0949 22.2249 24.5625 21.0956 24.786C20.9067 25.6442 20.3042 26.3457 19.5077 26.663V33.5992C20.4712 33.9795 21.156 34.9276 21.156 36.0389C21.156 37.1502 20.4712 38.0983 19.5077 38.4773V41.0017C19.5077 41.8368 19.8995 44.9163 20.2734 45.8284C20.371 45.8169 20.4687 45.8091 20.5702 45.8091C21.9923 45.8091 23.1473 46.9834 23.1473 48.4287C23.1473 49.274 22.7477 50.0243 22.1324 50.5061C22.8287 52.1993 26.3501 56.5969 28.0613 57.477" fill="white"/>
<path d="M20.0861 24.2208C20.0861 25.0661 19.4103 25.7496 18.5778 25.7496C17.7453 25.7496 17.0721 25.0648 17.0721 24.2208C17.0721 23.3767 17.7466 22.692 18.5778 22.692C19.409 22.692 20.0861 23.3767 20.0861 24.2208Z" fill="white"/>
<path d="M20.0861 36.0389C20.0861 36.8842 19.4103 37.5677 18.5778 37.5677C17.7453 37.5677 17.0721 36.8829 17.0721 36.0389C17.0721 35.1948 17.7466 34.5088 18.5778 34.5088C19.409 34.5088 20.0861 35.1935 20.0861 36.0389Z" fill="white"/>
<path d="M22.0738 48.4287C22.0738 49.2727 21.3993 49.9575 20.5694 49.9575C19.7394 49.9575 19.0624 49.2727 19.0624 48.4287C19.0624 47.5846 19.7369 46.8986 20.5694 46.8986C21.4018 46.8986 22.0738 47.5833 22.0738 48.4287Z" fill="white"/>
<path d="M39.1307 24.2208C39.1307 25.0661 39.8039 25.7496 40.6351 25.7496C41.4664 25.7496 42.1408 25.0648 42.1408 24.2208C42.1408 23.3767 41.4664 22.692 40.6351 22.692C39.8039 22.692 39.1307 23.3767 39.1307 24.2208Z" fill="white"/>
<path d="M28.1014 23.184C28.1014 24.0293 28.7759 24.7128 29.6097 24.7128C30.4435 24.7128 31.1154 24.0293 31.1154 23.184C31.1154 22.3387 30.4396 21.6539 29.6097 21.6539C28.7798 21.6539 28.1014 22.3387 28.1014 23.184Z" fill="white"/>
<path d="M28.1014 59.5736C28.1014 60.4177 28.7759 61.1011 29.6097 61.1011C30.4435 61.1011 31.1154 60.4177 31.1154 59.5736C31.1154 58.7295 30.4396 58.0448 29.6097 58.0448C28.7798 58.0448 28.1014 58.7283 28.1014 59.5736Z" fill="white"/>
<path d="M39.1307 36.0389C39.1307 36.8842 39.8039 37.5677 40.6351 37.5677C41.4664 37.5677 42.1408 36.8829 42.1408 36.0389C42.1408 35.1948 41.4664 34.5088 40.6351 34.5088C39.8039 34.5088 39.1307 35.1935 39.1307 36.0389Z" fill="white"/>
<path d="M37.1384 48.4287C37.1384 49.2727 37.8129 49.9575 38.6454 49.9575C39.4779 49.9575 40.1511 49.2727 40.1511 48.4287C40.1511 47.5846 39.4753 46.8986 38.6454 46.8986C37.8155 46.8986 37.1384 47.5833 37.1384 48.4287Z" fill="white"/>
<path d="M13.0954 38.8704V39.9984H10.9127C8.99845 39.9984 7.35144 38.1124 7.35144 36.071C7.35144 34.0296 8.94063 32.2425 10.9127 32.2425H13.0954V33.3307H10.9127C9.60997 33.3307 8.44345 34.6732 8.44345 36.071C8.44345 37.4688 9.59327 38.873 10.9127 38.873C11.9841 38.873 13.0954 38.8691 13.0954 38.8691" fill="white"/>
<path d="M48.9394 33.1547C47.7909 33.1547 46.9597 34.0039 46.9597 35.2231V37.2709H50.8408V35.2231C50.8408 34.018 50.1136 33.1547 48.9394 33.1547ZM51.8878 35.0741V39.992H50.8421V38.3578H46.9609V39.992H45.9589V35.0741C45.9589 33.5774 47.2153 32.0486 48.9394 32.0486C50.774 32.0486 51.8865 33.5902 51.8865 35.0741" fill="white"/>
<path d="M29.6853 66.4211C28.1874 66.4211 26.9707 67.6558 26.9707 69.1756C26.9707 70.6954 28.1861 71.93 29.6853 71.93C31.1846 71.93 32.3974 70.6941 32.3974 69.1756C32.3974 67.657 31.182 66.4211 29.6853 66.4211ZM29.6853 65.2559C31.8128 65.2559 33.5446 67.0134 33.5446 69.1756C33.5446 71.3378 31.8128 73.0927 29.6853 73.0927C27.5578 73.0927 25.826 71.3352 25.826 69.1756C25.826 67.016 27.5566 65.2559 29.6853 65.2559Z" fill="white"/>
<path d="M29.6407 37.8542L29.7988 37.7386V36.4115C29.7988 35.9053 29.4981 35.6021 29.4981 35.6021C29.4981 35.6021 28.6554 34.6617 28.4549 34.4394C28.2404 34.2223 28.0618 34.1311 27.7638 34.1311V33.9242C27.7638 33.7611 27.7278 33.7033 27.5479 33.7033H26.718C26.596 33.72 26.5112 33.72 26.4187 33.4746C26.3262 33.2677 26.0769 33.314 25.9343 33.4579C25.6954 33.6455 24.0432 35.5289 23.9893 35.5841C23.8557 35.719 23.8595 35.9387 23.9893 36.1275C24.0124 36.1661 24.3092 36.68 24.3092 36.68C24.3092 36.68 24.8873 36.2342 24.9271 36.1956C25.1108 36.0749 25.4436 36.2881 25.4436 36.2881L24.5353 37.0166C24.5353 37.0166 24.5661 37.2529 24.7678 37.2529H25.5965L25.8907 37.8426L26.4379 37.8362V36.7211H26.7694V35.6329H27.219V37.1771H26.8876V38.3167H25.6299L24.4042 39.505H25.4436L24.9836 40.4943L26.3197 40.4994L26.3082 41.4129L27.3026 40.2348L28.3612 41.0416V39.6592H29.8579L29.2438 38.5428H30.1379L29.642 37.849L29.6407 37.8542ZM25.5502 35.3747C25.4153 35.3747 25.2213 35.2257 25.2213 35.1768V35.0278C25.2393 34.8698 25.8007 34.7426 25.8842 34.7644C25.8958 34.776 25.9266 34.7747 25.9266 34.9045C25.9266 35.0162 25.8149 35.3734 25.5502 35.3734" fill="#CAA946"/>
<path d="M24.2585 30.8795C24.2585 30.8795 24.4782 31.2726 24.4897 31.2944C24.5488 31.3741 24.6131 31.3844 24.6722 31.3779C24.6876 31.4537 24.7197 31.6053 24.7557 31.7711L24.7133 31.9753L24.8276 32.0999C24.8585 32.2438 24.8841 32.3595 24.8919 32.3929C24.8983 32.4224 24.9047 32.4507 24.9098 32.4699C25.3004 32.2747 26.4027 32.0794 26.9949 32.0794C27.5872 32.0794 28.6882 32.2747 29.0787 32.4699C29.089 32.434 29.1006 32.3774 29.1121 32.3209C29.1186 32.2926 29.1378 32.2079 29.1597 32.1012L29.274 31.974L29.2316 31.7582C29.2663 31.604 29.2959 31.4576 29.3126 31.3754C29.3742 31.3831 29.4372 31.3728 29.4988 31.2919C29.5117 31.27 29.7301 30.8769 29.7301 30.8769L29.8958 30.5801L30.1553 30.1151C30.1553 30.1151 30.0461 30.0495 29.8457 30.0495C29.5978 30.0495 29.5297 30.3887 29.5297 30.3887C29.5297 30.3887 29.4552 30.2448 29.3023 30.2448C29.1276 30.2448 29.0248 30.3771 29.0248 30.548C29.0248 30.7189 29.1674 30.8024 29.1982 30.8383C29.2804 30.9501 29.1944 31.0079 29.1173 30.9642C29.0646 30.9475 28.5494 30.7972 28.4775 30.7972C28.358 30.7882 28.3824 30.6996 28.4544 30.6996C28.4878 30.7022 28.5135 30.7047 28.5327 30.7047C28.6625 30.7047 28.7447 30.5994 28.7447 30.4966C28.7447 30.2782 28.5751 30.2499 28.5751 30.2499C28.5751 30.2499 28.6137 30.1947 28.6137 30.1356C28.6137 30.0033 28.5186 29.8812 28.385 29.8812C28.155 29.8812 28.1615 30.1523 28.1615 30.1523C28.1615 30.1523 28.1306 30.142 28.1203 30.142C28.0561 30.142 27.9122 30.2127 27.9122 30.3733C27.9122 30.5107 28.0176 30.5878 28.0702 30.5981C28.1435 30.6251 28.1705 30.7035 28.0702 30.715C28.0253 30.706 27.3277 30.6469 27.2737 30.6469C27.1709 30.6469 27.1478 30.4581 27.311 30.4594C27.4716 30.4594 27.6219 30.3245 27.6219 30.1266C27.6257 29.7913 27.3135 29.7707 27.3135 29.7707C27.3135 29.7707 27.3341 29.6975 27.3341 29.6526C27.3341 29.4367 27.1517 29.2993 26.9936 29.2993C26.8356 29.2993 26.6532 29.4367 26.6532 29.6526C26.6532 29.6962 26.6738 29.7707 26.6738 29.7707C26.6738 29.7707 26.3603 29.7913 26.3654 30.1266C26.3654 30.3245 26.517 30.4594 26.6763 30.4594C26.8395 30.4594 26.8164 30.6469 26.7136 30.6469C26.6596 30.6469 25.9633 30.7073 25.9183 30.715C25.8181 30.7047 25.8438 30.6251 25.9183 30.5981C25.971 30.5878 26.0764 30.5107 26.0764 30.3733C26.0764 30.2127 25.9299 30.142 25.867 30.142C25.8567 30.142 25.8258 30.1523 25.8258 30.1523C25.8258 30.1523 25.8336 29.8812 25.6023 29.8812C25.47 29.8812 25.3749 30.0046 25.3749 30.1356C25.3749 30.1947 25.4134 30.2499 25.4134 30.2499C25.4134 30.2499 25.2451 30.2769 25.2451 30.4966C25.2451 30.5994 25.3287 30.7047 25.4571 30.7047C25.4751 30.7047 25.5021 30.7022 25.5355 30.6996C25.6074 30.6996 25.6331 30.7882 25.5137 30.7972C25.4417 30.7972 24.9253 30.9475 24.8739 30.9642C24.7968 31.0079 24.7094 30.9501 24.7904 30.8383C24.8225 30.8037 24.9651 30.7202 24.9651 30.548C24.9651 30.3758 24.8623 30.2448 24.6876 30.2448C24.5347 30.2448 24.4589 30.3887 24.4589 30.3887C24.4589 30.3887 24.3921 30.0495 24.1454 30.0495C23.9437 30.0495 23.8358 30.1151 23.8358 30.1151L24.0953 30.5801L24.2598 30.8769L24.2585 30.8795Z" fill="#CAA946"/>
<path d="M33.781 35.1768C34.0097 35.1768 34.2435 35.2359 34.3874 35.4351C34.5403 36.3678 35.4101 36.766 35.4101 36.766L35.6298 36.5425C35.6298 36.5425 35.888 36.8059 36.5663 36.8059C36.5663 36.0569 36.1321 35.6445 35.8687 35.4248C35.5385 35.1357 35.1313 34.8235 34.8962 34.7182C34.5801 34.5191 34.2191 34.4934 33.9378 34.4934C33.0436 34.4934 32.5606 35.0805 32.5606 35.737C32.5606 36.5194 33.2684 36.9228 33.5382 37.1938C34.3065 37.9081 34.4465 38.1124 34.4465 38.4657C34.4465 38.7972 34.2885 38.977 34.0804 38.977H29.9513L30.5448 40.0986H28.813V41.937L27.351 40.8489L26.1267 42.1914C26.1267 42.1914 25.898 45.0306 25.8877 45.0859C25.8877 45.2863 25.7541 45.3685 25.6102 45.3685H24.9114C24.9114 45.3685 24.6647 45.84 24.6531 45.8554C24.5889 46.0263 24.576 46.4181 24.576 46.4181H26.6714C26.6714 46.4181 28.2568 43.5275 28.4597 43.2975C28.6859 43.0419 28.8041 42.9532 28.8041 42.9532C28.8041 42.9532 29.6558 42.3019 30.8018 42.3019C31.3966 42.3019 32.0929 42.4393 32.6376 42.7708C33.0346 43.0123 33.2453 43.2217 33.4509 43.4838C33.8273 43.963 33.9648 44.7043 34.0149 45.3287H33.5845C33.3558 45.3287 33.1066 45.479 33.059 45.6794C33.0398 45.7578 32.8676 46.4181 32.8676 46.4181H35.1621L35.622 45.33L35.1904 42.9391C35.1904 42.9391 33.9558 41.6852 33.9558 40.5572V40.4609C35.0221 40.2887 35.324 39.5462 35.324 38.7779C35.324 38.0829 35.2122 37.6448 34.4915 36.9125C34.1228 36.5386 33.2813 36.1494 33.2813 35.6817C33.2813 35.5314 33.411 35.1768 33.7798 35.1768" fill="#CAA946"/>
<path d="M25.9062 42.2531V40.8964H23.8982C23.5821 40.8964 23.2237 41.1508 23.18 41.364C23.1363 41.4874 22.6931 42.7528 22.6931 42.7528C22.6931 42.7528 22.6443 43.0162 22.6443 43.0945C22.6443 44.1352 23.5436 44.2302 23.5436 44.2302C23.5436 44.2302 23.9406 42.9211 23.9457 42.889C24.0279 42.695 24.2707 42.4959 24.4429 42.4959H25.6659C25.8484 42.4959 25.9049 42.4265 25.9049 42.2531" fill="#CAA946"/>
<path d="M30.3684 42.7926L30.5817 43.4812C30.5817 43.4812 30.6203 43.5596 30.6203 43.6958C30.6203 44.0992 30.2952 45.0178 30.1128 45.3274H29.0902C28.8949 45.3274 28.6405 45.8965 28.6405 46.4168H30.7821L32.5705 44.3754C32.5705 44.3754 32.767 43.4401 32.7709 43.4183C32.4458 43.0881 31.4951 42.6911 30.3672 42.7926" fill="#CAA946"/>
</g>
<defs>
<clipPath id="clip0_592_2128">
<rect width="59.0188" height="80" fill="white"/>
</clipPath>
</defs>
</svg>
