<svg width="92" height="120" viewBox="0 0 92 120" fill="none" xmlns="http://www.w3.org/2000/svg">
<g id="Formato=Color" clip-path="url(#clip0_105_333)">
<path id="Vector" d="M82.3379 73.6084C74.4064 93.9003 56.1495 115.855 45.8418 115.855C35.534 115.855 17.5919 94.7515 9.71364 75.333C3.69302 60.4987 3.67972 51.3392 4.06543 49.0294C4.26937 47.8235 4.81469 46.1521 5.44423 44.33C6.28659 41.8827 7.44815 39.6305 7.44815 39.6305C8.1974 38.2694 8.98656 36.8153 9.95305 35.3655C16.5012 25.3859 22.2159 26.84 22.2159 26.84C23.577 25.8735 24.9869 25.2573 26.3923 24.9957C32.0183 23.8962 37.5113 28.1612 38.0877 33.8316C38.0877 33.8316 37.2985 34.8867 37.999 35.503C38.6596 36.0749 38.9655 35.5916 38.9655 35.5916L40.8098 33.703C44.1482 33.703 45.6467 37.7906 45.6467 37.7906C45.6467 37.7906 47.2294 33.703 50.5235 33.703L52.4166 35.5916C52.4166 35.5916 52.6781 36.0749 53.3831 35.503C54.0835 34.8867 53.2944 33.8316 53.2944 33.8316C53.8663 28.0725 59.5367 23.7632 65.2957 25.0401C66.6169 25.346 67.8893 25.9179 69.1617 26.84C69.1617 26.84 74.832 25.3903 81.4246 35.3655C82.3467 36.8153 84.7718 41.129 85.6541 43.1994C86.359 44.862 86.8999 45.9526 87.3698 49.0294C87.76 51.5786 86.8068 62.1568 82.3334 73.604M26.3967 11.0126C27.5405 9.38556 28.9459 7.67426 30.7503 5.95851L30.9676 6.30876C30.9676 6.30876 28.6843 8.59641 26.3967 12.0235C24.0691 15.4949 21.7371 20.1101 21.8258 24.7297C21.8258 24.7297 21.081 18.5761 26.3967 11.0171M60.9022 5.96295C62.7021 7.67869 64.1563 9.39 65.2957 11.0171C70.5715 18.5761 69.8223 24.7297 69.8223 24.7297C69.9109 20.1145 67.6233 15.4993 65.2957 12.0235C63.0081 8.59641 60.7248 6.30876 60.7248 6.30876L60.9022 5.95851V5.96295ZM83.6723 26.5785C77.164 15.3707 69.8666 9.56734 65.2957 6.7521C63.0081 5.3467 61.3854 4.64178 60.9421 4.42011C59.5367 3.71519 58.9648 4.59745 58.9648 4.59745C53.2944 11.1013 49.6457 6.09152 49.6457 6.09152C49.6457 6.09152 50.3461 4.50878 50.6565 2.92604C50.9181 1.38763 49.557 1.38763 48.9407 1.38763C48.2802 1.38763 47.2294 2.5758 47.2294 2.5758L45.691 2.30979L44.1526 2.5758C44.1526 2.5758 43.0975 1.38763 42.4369 1.38763C41.8206 1.38763 40.4152 1.38763 40.7256 2.92604C41.0315 4.50878 41.6921 6.09152 41.6921 6.09152C41.6921 6.09152 38.0877 11.1013 32.4173 4.59745C32.4173 4.59745 31.8011 3.71963 30.44 4.42011C30.0011 4.64178 28.507 5.2536 26.3967 6.57476C21.8258 9.34566 14.351 15.1446 7.71416 26.574C2.70437 35.1439 1.43197 43.5851 1.38763 49.6501V50.8826C1.43197 53.7422 1.69798 56.0254 1.91521 57.4308C2.92604 63.5401 6.13585 79.8507 19.9815 98.6618C22.1805 101.694 35.1084 118.612 45.6955 118.612C56.2825 118.612 68.8513 102.182 71.4094 98.6618C85.2551 79.8463 88.4205 63.5401 89.4314 57.4308C89.6929 56.0254 89.959 53.7377 90.0033 50.8826V49.6501C89.9146 43.5408 88.6422 35.1439 83.6768 26.574" fill="#0A0909"/>
<path id="Vector_2" d="M45.6955 120C34.0666 120 20.3805 101.579 18.8599 99.4776C9.10629 86.2305 2.94381 72.1543 0.545313 57.6569C0.323641 56.2161 0.0443344 53.8885 0 50.9048V49.6546C0.039901 43.8201 1.2059 34.9666 6.52159 25.878C13.0964 14.555 20.5712 8.48561 25.6829 5.39107C27.4696 4.27384 28.8573 3.63542 29.5223 3.32508C29.6509 3.26301 29.7528 3.21868 29.8238 3.18321C31.6592 2.23445 32.9893 3.08124 33.4947 3.71966C35.1616 5.62161 36.7621 6.59253 38.1719 6.54819C39.0143 6.51716 39.6749 6.10928 40.0916 5.76348C39.8611 5.10733 39.5596 4.15414 39.369 3.19208C39.1473 2.08815 39.4975 1.36993 39.8301 0.962057C40.6192 0 41.896 0 42.4413 0C43.2527 0 44.0507 0.549747 44.6359 1.08619L45.6955 0.904422L46.7551 1.08619C47.3403 0.549747 48.1339 0 48.9496 0C49.4817 0 50.7319 0 51.521 0.935456C51.858 1.33447 52.2171 2.04382 52.0265 3.15661C51.8358 4.14084 51.5166 5.10289 51.2728 5.76348C51.6939 6.10928 52.3634 6.51273 53.2102 6.53933C53.2412 6.53933 53.2767 6.53933 53.3077 6.53933C54.6865 6.53933 56.2648 5.5684 57.883 3.71966C58.384 3.06794 59.683 2.23002 61.5628 3.16991C61.6293 3.20095 61.7224 3.24528 61.8421 3.30291C62.5559 3.63986 64.0411 4.34034 66.0184 5.55954C71.0282 8.64078 78.3655 14.6658 84.865 25.8691C90.0964 34.9001 91.2979 43.7714 91.3821 49.6235V50.8738C91.3467 53.3875 91.1294 55.8614 90.788 57.6791C88.3895 72.1986 82.2404 86.2704 72.5178 99.4776C71.9149 100.311 57.4663 119.991 45.6866 119.991L45.6955 120ZM8.66738 40.2956C8.66738 40.2956 7.55015 42.4679 6.75657 44.7822C6.19352 46.4226 5.62604 48.1206 5.4354 49.26C5.4221 49.3442 4.1098 57.8298 10.9994 74.8099C19.1214 94.8225 36.3808 114.467 45.8418 114.467C50.2087 114.467 56.9697 109.595 63.9258 101.437C70.9129 93.2442 77.3104 82.6527 81.0478 73.0986C85.3925 61.9884 86.3546 51.5255 86.0088 49.2334C85.6053 46.5866 85.1664 45.5625 84.5635 44.1438L84.3906 43.7359C83.5571 41.7719 81.1542 37.4936 80.2675 36.106C74.4198 27.2568 69.5386 28.1745 69.4898 28.1834L68.8602 28.343L68.3593 27.9529C67.2819 27.1681 66.178 26.6539 64.9898 26.379C62.7066 25.8736 60.2505 26.4056 58.2643 27.842C56.3535 29.2253 55.0855 31.2779 54.7397 33.5168C55.223 34.4789 55.2673 35.6936 54.3052 36.5316L54.2653 36.567C53.5117 37.1789 52.8466 37.2055 52.421 37.1212C51.9999 37.037 51.623 36.8064 51.3659 36.4784L50.0181 35.1306C48.0497 35.5518 46.959 38.2517 46.9502 38.2828L45.6113 41.6744L44.3566 38.2562C44.3477 38.2296 43.3236 35.5562 41.3507 35.135L40.0118 36.505C39.8212 36.7311 39.4532 37.0547 38.868 37.1434C38.4468 37.2055 37.7995 37.1522 37.0991 36.5449C36.137 35.7025 36.1769 34.4878 36.6601 33.5257C36.3143 31.3178 35.0774 29.2873 33.2154 27.9085C31.2957 26.4854 28.9105 25.9179 26.6672 26.3524C25.4347 26.5829 24.2155 27.1282 23.0273 27.9706L22.5042 28.343L21.8835 28.1834C21.8835 28.1834 16.9402 27.2568 11.1191 36.1281C10.2058 37.4981 9.45653 38.8636 8.72945 40.1847L8.66738 40.2956ZM73.839 92.7387C72.1188 95.3589 70.3011 97.8993 68.4302 100.284C69.1218 99.4155 69.7469 98.5953 70.2878 97.8505C71.5292 96.1614 72.7129 94.4589 73.8346 92.7432L73.839 92.7387ZM27.1947 7.70976C27.1947 7.70976 27.1548 7.73636 27.1327 7.74966C22.2825 10.689 15.1978 16.4525 8.91565 27.2701C4.31374 35.1395 3.01474 42.8182 2.80637 48.2713C3.08124 46.9945 3.61326 45.4073 4.1364 43.8778C5.00092 41.364 6.17135 39.0852 6.22012 38.9921L6.29549 38.8503C7.04917 37.4759 7.82946 36.0572 8.80038 34.5942C11.6733 30.2183 14.7811 27.3499 18.0352 26.0686C19.7599 25.3903 21.1076 25.3371 21.8746 25.3948C22.2603 25.1421 22.646 24.9159 23.0406 24.712L20.447 24.8938C20.4116 24.6189 19.7022 18.1195 25.2618 10.2147C25.878 9.33683 26.5164 8.50778 27.1903 7.70976H27.1947ZM69.9775 25.377C70.771 25.377 71.9282 25.51 73.338 26.0686C76.5833 27.3499 79.6956 30.2183 82.5906 34.5986C83.5793 36.1503 86.0221 40.4995 86.9398 42.6586L87.1127 43.062C87.6536 44.33 88.1368 45.4517 88.5492 47.6196C88.2299 42.2019 86.8423 34.7937 82.4842 27.2701C76.3616 16.7185 69.5164 11.0082 64.7815 8.05556C65.3755 8.76492 65.9297 9.48757 66.444 10.2191C71.9592 18.1283 71.2454 24.6233 71.2144 24.8982L68.4524 24.7031C68.5366 20.2741 66.1647 15.7875 64.1608 12.7993C61.984 9.53633 59.7805 7.31518 59.7584 7.29301L59.0535 6.5881L59.1022 6.49499C57.1072 8.45901 55.0811 9.40333 53.0727 9.3191C50.2353 9.19496 48.6083 7.00484 48.5418 6.91174L48.0718 6.26445L48.3955 5.53294C48.3955 5.53294 49.0028 4.1497 49.2866 2.7842C49.2245 2.7842 49.158 2.77977 49.1004 2.77534C48.9053 2.8906 48.5329 3.21425 48.2802 3.49799L47.7703 4.0699L45.7088 3.71966L43.6472 4.07433L43.1374 3.49799C42.8847 3.21425 42.5123 2.8906 42.3172 2.77534C42.2596 2.77534 42.1931 2.77534 42.131 2.7842C42.4192 4.16744 42.9867 5.54624 42.9911 5.56397L43.2881 6.27775L42.8359 6.9073C42.7694 7.00041 41.1645 9.19053 38.3448 9.3191C36.4119 9.4122 34.47 8.53438 32.5459 6.71667L31.9696 7.29301C31.9696 7.29301 29.744 9.53633 27.5716 12.7949C24.6455 17.1574 23.1869 21.1387 23.2312 24.6322C24.1889 24.1534 25.1731 23.8209 26.1617 23.6347C29.1543 23.0495 32.3375 23.7987 34.8823 25.6874C37.3473 27.5184 38.9788 30.2183 39.4222 33.1666L40.2512 32.3154H40.8364C43.1285 32.3154 44.7068 33.703 45.6911 35.0153C46.693 33.703 48.2846 32.3154 50.5501 32.3154H51.122L51.9999 33.1932C52.4388 30.1917 54.1146 27.4474 56.6505 25.612C59.2751 23.7101 62.5426 23.0096 65.615 23.6879C67.0115 24.0115 68.2928 24.5746 69.5341 25.3992C69.6671 25.3903 69.8223 25.3815 69.9908 25.3815L69.9775 25.377Z" fill="white"/>
<path id="Vector_3" d="M82.5152 73.6084C74.5838 93.9003 56.3269 115.855 46.0191 115.855C35.7114 115.855 17.7692 94.7515 9.89101 75.333C3.87039 60.4987 3.85709 51.3392 4.2428 49.0294C4.44674 47.8235 4.99205 46.1521 5.6216 44.33C6.46396 41.8827 7.62995 39.6305 7.62995 39.6305C8.3792 38.265 9.16836 36.8153 10.1348 35.3655C16.683 25.3859 22.3978 26.8356 22.3978 26.8356C23.7588 25.8691 25.1687 25.2529 26.5741 24.9913C32.2001 23.8918 37.6931 28.1568 38.265 33.8271C38.265 33.8271 37.4759 34.8823 38.1764 35.4985C38.837 36.0705 39.1429 35.5872 39.1429 35.5872L40.9872 33.6986C44.3256 33.6986 45.8241 37.7862 45.8241 37.7862C45.8241 37.7862 47.4068 33.6986 50.7053 33.6986L52.5939 35.5872C52.5939 35.5872 52.8555 36.0705 53.5604 35.4985C54.2609 34.8823 53.4718 33.8271 53.4718 33.8271C54.0437 28.0681 59.714 23.7588 65.4731 25.0356C66.7942 25.3415 68.0667 25.9134 69.3435 26.8356C69.3435 26.8356 75.0139 25.3859 81.6064 35.3655C82.5285 36.8153 84.9536 41.1246 85.8359 43.1994C86.5408 44.862 87.0817 45.9526 87.5516 49.0294C87.9418 51.5786 86.9886 62.1568 82.5152 73.604M26.5741 11.0126C27.7179 9.38556 29.1233 7.67426 30.9277 5.95851L31.1449 6.30876C31.1449 6.30876 28.8573 8.59641 26.5741 12.0235C24.2421 15.4948 21.9145 20.1101 22.0032 24.7297C22.0032 24.7297 21.2584 18.5761 26.5741 11.0171M61.0795 5.96295C62.884 7.67869 64.3337 9.39 65.4731 11.0171C70.7489 18.5761 69.9996 24.7297 69.9996 24.7297C70.0883 20.1145 67.8006 15.4993 65.4731 12.0235C63.1854 8.59641 60.9022 6.30876 60.9022 6.30876L61.0795 5.95851V5.96295ZM83.8497 26.5785C77.3458 15.3707 70.044 9.56734 65.4731 6.7521C63.1854 5.3467 61.5628 4.64178 61.1239 4.42011C59.7185 3.71519 59.1466 4.59745 59.1466 4.59745C53.4762 11.1013 49.8275 6.09152 49.8275 6.09152C49.8275 6.09152 50.5279 4.50878 50.8383 2.92604C51.1043 1.38763 49.7388 1.38763 49.127 1.38763C48.4664 1.38763 47.4112 2.5758 47.4112 2.5758L45.8728 2.30979L44.3344 2.5758C44.3344 2.5758 43.2793 1.38763 42.6187 1.38763C42.0024 1.38763 40.597 1.38763 40.9074 2.92604C41.2133 4.50878 41.8739 6.09152 41.8739 6.09152C41.8739 6.09152 38.2695 11.1013 32.5991 4.59745C32.5991 4.59745 31.9829 3.71963 30.6218 4.42011C30.1829 4.64178 28.6888 5.25803 26.5785 6.57476C22.0076 9.34566 14.5328 15.149 7.89596 26.574C2.88173 35.1439 1.6049 43.5851 1.565 49.6501V50.8782C1.60934 53.7377 1.87091 56.021 2.09258 57.4263C3.10341 63.5356 6.30879 79.8463 20.1589 98.6574C22.3579 101.69 35.2858 118.608 45.8728 118.608C56.4599 118.608 69.0287 102.178 71.5868 98.6574C85.4324 79.8418 88.5979 63.5356 89.6087 57.4263C89.8703 56.021 90.1363 53.7333 90.1807 50.8782V49.6501C90.092 43.5408 88.8196 35.1439 83.8541 26.5696" fill="#0A0909"/>
<path id="Vector_4" d="M87.4985 48.6881H4.30933C4.30933 48.6881 4.73937 47.0034 5.62163 44.2901C6.37974 41.9714 7.54131 39.8877 7.54131 39.8877H84.1601C84.1601 39.8877 84.9537 41.2621 85.8359 43.1995C87.2369 46.2807 87.4985 48.6881 87.4985 48.6881Z" fill="#3E93CD"/>
<path id="Vector_5" d="M84.1512 39.8877H7.66541C7.66541 39.8877 10.1348 34.7449 13.4954 31.3799C18.9219 25.9534 22.4376 27.0927 22.4376 27.0927C22.4376 27.0927 25.5455 24.2199 29.9612 25.2041C37.9059 26.9819 38.3094 34.0799 38.3094 34.0799C38.3094 34.0799 37.4537 35.3212 38.4069 35.933C38.5621 36.035 38.9167 36.1192 39.1916 35.8399C40.0916 34.9178 41.0359 33.9468 41.0359 33.9468C44.4674 34.04 45.8728 38.0345 45.8728 38.0345C45.8728 38.0345 47.4556 34.2306 50.1334 33.9956L50.7496 33.9468L52.8067 35.9641C52.8067 35.9641 53.1969 36.2655 53.6047 35.7468C54.2476 34.9355 53.5161 34.0754 53.5161 34.0754C53.5161 34.0754 53.5294 28.139 60.2194 25.6297C65.4243 23.679 69.3834 27.0883 69.3834 27.0883C69.3834 27.0883 72.2784 26.0553 76.898 30.0277C81.1586 33.6897 84.1556 39.8788 84.1556 39.8788" fill="white"/>
<path id="Vector_6" d="M46.0235 115.855C55.4402 115.904 69.5607 99.4111 78.0552 83.2512C87.658 64.3869 88.1501 51.1087 87.5028 48.6837H4.30927C2.90387 55.9323 8.13977 75.3907 17.2461 89.8083C25.8336 103.197 36.6158 115.505 46.0191 115.855" fill="#FFE524"/>
<path id="Vector_7" d="M46.0635 115.864H46.0236C41.67 115.704 36.7267 112.964 31.3267 107.728C28.9681 105.441 26.5164 102.67 24.0426 99.482C21.7904 96.5825 19.5027 93.3284 17.2461 89.8127C15.0604 86.359 13.021 82.4931 11.1856 78.3212C9.48316 74.4641 8.02012 70.505 6.83639 66.5593C5.71916 62.8352 4.89454 59.2308 4.46006 56.1407C4.02115 53.0373 3.96795 50.457 4.31376 48.6836L87.5162 48.6792C87.8398 49.894 87.8753 53.853 86.6384 59.8071C85.9467 63.1367 84.9537 66.6479 83.6901 70.239C82.1872 74.5084 80.2941 78.8887 78.073 83.2556C75.936 87.3211 73.4932 91.3289 70.8065 95.1727C68.0711 99.0919 65.2426 102.612 62.4007 105.636C59.4037 108.823 56.5176 111.324 53.822 113.057C50.9358 114.919 48.329 115.859 46.0768 115.859L46.0635 115.864ZM46.0236 115.85C46.0236 115.85 46.0502 115.85 46.0635 115.85C48.3157 115.85 50.9181 114.91 53.7999 113.048C56.4954 111.31 59.3816 108.814 62.3786 105.627C65.2204 102.603 68.0489 99.083 70.7844 95.1683C73.4666 91.3245 75.9139 87.3167 78.0508 83.2512C80.2764 78.8842 82.165 74.504 83.668 70.2346C84.9315 66.6435 85.9246 63.1322 86.6162 59.8071C87.8487 53.8663 87.8177 49.9117 87.494 48.6969H4.31376C3.61771 52.2925 4.56647 58.9692 6.84082 66.5593C8.02455 70.505 9.48759 74.4641 11.19 78.3212C13.0299 82.4886 15.0693 86.3546 17.2505 89.8083C19.5072 93.324 21.7948 96.5781 24.047 99.4776C26.5209 102.661 28.9726 105.436 31.3312 107.719C36.7267 112.951 41.67 115.686 46.0192 115.85H46.0236Z" fill="#0F0C0D"/>
<path id="Vector_8" d="M40.9517 114.591C40.9517 114.591 39.1872 114.086 35.2193 111.129C33.273 109.674 31.6193 108.034 31.6193 108.034V48.688H40.9517V114.591Z" fill="#E23C07"/>
<path id="Vector_9" d="M50.4659 114.769C50.4659 114.769 52.2304 114.263 56.1983 111.302C58.149 109.852 59.7983 108.207 59.7983 108.207V48.688H50.4659V114.769Z" fill="#E23C07"/>
<path id="Vector_10" d="M59.1731 70.8642C59.1731 78.2991 53.219 84.3285 45.8684 84.3285C38.5177 84.3285 32.5681 78.2991 32.5681 70.8642C32.5681 63.4293 38.5222 57.4042 45.8684 57.4042C53.2146 57.4042 59.1731 63.4337 59.1731 70.8642Z" fill="#B03E24"/>
<path id="Vector_11" d="M48.5329 82.6039C49.7964 82.0586 54.5447 79.8951 54.5846 72.3095C54.62 69.2016 53.8309 64.5953 50.9358 62.649C48.9718 62.3741 47.6551 63.2564 47.1585 64.9145C47.9654 65.4288 50.59 67.5302 49.0694 72.274C49.1226 72.3627 49.1802 72.4602 49.2245 72.5444C50.5368 75.0759 50.2708 78.166 47.6196 79.7311C47.2206 79.966 46.7906 80.1611 46.3472 80.2985C46.7773 81.4202 47.5664 82.1517 48.5329 82.5995" fill="#D69100"/>
<path id="Vector_12" d="M35.7602 78.2724C37.0592 80.0502 38.8104 81.4734 40.8498 82.3689C40.3532 81.6463 39.9099 80.7951 39.7591 80.0369C38.6862 78.8576 37.3828 77.9976 35.7557 78.2724" fill="#D69100"/>
<path id="Vector_13" d="M33.3749 71.2853C33.4459 73.6572 34.1818 75.8607 35.3966 77.7227C37.201 77.306 38.8813 78.135 40.1005 79.4828C40.7611 78.9508 42.7118 77.8601 46.0103 79.7665C49.3708 78.8311 50.1201 75.608 48.6792 72.8282L48.5994 72.6774C47.3048 73.072 40.9295 74.708 33.3749 71.2853Z" fill="#D69100"/>
<path id="Vector_14" d="M35.3523 64.1075C34.1464 65.9873 33.4282 68.2129 33.3705 70.6114C37.4936 72.5355 41.2754 72.9035 44.0374 72.7838C46.1522 72.6907 47.797 72.2695 48.493 72.0611C49.2467 69.6582 49.0827 66.8252 46.795 65.411C45.1458 66.1647 43.1995 66.4262 41.6611 65.3312C39.3468 66.4351 37.0503 66.1425 35.4365 64.2184L35.3479 64.1075H35.3523Z" fill="#D69100"/>
<path id="Vector_15" d="M45.4206 58.3618C41.4216 58.5037 37.9015 60.5253 35.7114 63.5755C35.7646 63.6465 35.8311 63.7307 35.9064 63.8238C37.3961 65.5972 39.3246 65.7036 41.3684 64.7859C41.3108 63.9701 41.4748 61.3056 45.4206 58.3618Z" fill="#D69100"/>
<path id="Vector_16" d="M53.1526 60.7116C51.2506 59.3372 48.9541 58.486 46.4669 58.3663C44.5428 59.6786 42.1 61.8909 41.9758 64.4002C41.967 64.5775 41.9758 64.715 41.9847 64.7992C42.0556 64.8524 42.1354 64.91 42.2019 64.9499C43.5453 65.748 45.1812 65.5041 46.5379 64.848C47.092 62.9194 48.6748 61.7002 50.8161 61.9662L50.9802 61.8066C51.592 61.248 52.3412 60.8357 53.1481 60.7116" fill="#D69100"/>
<path id="Vector_17" d="M49.3841 82.9143C54.5535 81.3936 58.3441 76.5966 58.3441 70.9085C58.3441 67.0381 56.6106 63.5933 53.8973 61.2924C52.9708 61.2081 52.0929 61.6249 51.4191 62.2455C52.4166 62.9771 55.2717 65.6504 55.1963 72.3183C55.1564 79.3852 51.1796 82.0054 49.3486 82.9054L49.3841 82.9143Z" fill="#D69100"/>
<path id="Vector_18" d="M45.8773 83.4152C46.7108 83.4152 47.5265 83.3354 48.3112 83.1758C47.1851 82.666 46.2674 81.8103 45.8063 80.6133C45.7576 80.4847 45.7221 80.3739 45.6999 80.2941C43.9665 79.3143 41.9182 78.7424 40.402 80.0547C40.4463 80.2187 40.5172 80.4404 40.6281 80.702C40.8586 81.2561 41.2576 82.001 41.9404 82.7857C43.1773 83.1936 44.5029 83.4152 45.8773 83.4152Z" fill="#D69100"/>
<path id="Vector_19" d="M22.6815 97.6909C22.6815 97.6909 19.6135 93.5058 17.2461 89.8083C15.0648 86.5142 13.4777 83.1581 13.4777 83.1581V48.6837H22.6815V97.6909Z" fill="#E23C07"/>
<path id="Vector_20" d="M68.8824 97.8239C68.8824 97.8239 71.9902 93.5279 74.3178 89.8127C76.499 86.5142 78.0862 83.1625 78.0862 83.1625V48.688H68.8824V97.8239Z" fill="#E23C07"/>
<path id="Vector_21" d="M14.3821 41.2044H15.7742L13.5841 47.491H12.3161L10.1481 41.2044H11.5801L12.9722 45.9792L14.3821 41.2044Z" fill="white"/>
<path id="Vector_22" d="M18.5761 45.1147H20.2209L19.4096 42.6408L18.5761 45.1147ZM18.6648 41.2H20.181L22.4554 47.491H21.0012L20.5756 46.1964H18.2082L17.7737 47.491H16.3683L18.6604 41.2H18.6648Z" fill="white"/>
<path id="Vector_23" d="M24.1844 41.2044H25.5233V46.3605H28.7332V47.491H24.1844V41.2044Z" fill="white"/>
<path id="Vector_24" d="M35.2947 42.3172H31.8942V43.6517H35.0154V44.7467H31.8942V46.3605H35.4498V47.491H30.5819V41.2044H35.2947V42.3172Z" fill="white"/>
<path id="Vector_25" d="M37.3828 41.2044H38.7926L41.3419 45.5891V41.2044H42.5921V47.491H41.2488L38.633 43.031V47.491H37.3828V41.2044Z" fill="white"/>
<path id="Vector_26" d="M45.3763 41.8606C45.895 41.3419 46.5512 41.0847 47.3492 41.0847C48.4176 41.0847 49.1979 41.4305 49.6945 42.1266C49.9693 42.5167 50.1156 42.9069 50.1334 43.3014H48.79C48.7058 43 48.595 42.7739 48.462 42.6187C48.2226 42.3482 47.8679 42.2108 47.3979 42.2108C46.928 42.2108 46.5423 42.4015 46.2674 42.7872C45.9925 43.1729 45.8551 43.7182 45.8551 44.4231C45.8551 45.128 46.0014 45.6556 46.294 46.0103C46.5866 46.3605 46.9546 46.5379 47.4068 46.5379C47.859 46.5379 48.2181 46.3871 48.4575 46.0856C48.5905 45.9216 48.7014 45.6822 48.79 45.3541H50.1245C50.0092 46.0413 49.7166 46.5955 49.2423 47.0255C48.7679 47.4556 48.1649 47.6684 47.4245 47.6684C46.5113 47.6684 45.793 47.3802 45.2699 46.7994C44.7467 46.2142 44.4852 45.4162 44.4852 44.4009C44.4852 43.3014 44.7822 42.4547 45.3763 41.8606Z" fill="white"/>
<path id="Vector_27" d="M53.3432 41.2044H52.0087V47.491H53.3432V41.2044Z" fill="white"/>
<path id="Vector_28" d="M57.2535 45.1147H58.8983L58.087 42.6408L57.2535 45.1147ZM57.3421 41.2H58.8628L61.1327 47.491H59.6786L59.253 46.1964H56.8899L56.4554 47.491H55.05L57.3421 41.2Z" fill="white"/>
<path id="Vector_29" d="M66.5371 41.8606C67.0558 41.3419 67.712 41.0847 68.51 41.0847C69.5785 41.0847 70.3587 41.4305 70.8553 42.1266C71.1302 42.5167 71.2765 42.9069 71.2942 43.3014H69.9509C69.8666 43 69.7558 42.7739 69.6228 42.6187C69.3834 42.3482 69.0287 42.2108 68.5588 42.2108C68.0888 42.2108 67.7031 42.4015 67.4282 42.7872C67.1534 43.1729 67.0159 43.7182 67.0159 44.4231C67.0159 45.128 67.1622 45.6556 67.4548 46.0103C67.7474 46.3605 68.1154 46.5379 68.5632 46.5379C69.011 46.5379 69.3745 46.3871 69.6184 46.0856C69.7514 45.9216 69.8622 45.6822 69.9509 45.3541H71.2853C71.1701 46.0413 70.8775 46.5955 70.4031 47.0255C69.9287 47.4556 69.3257 47.6684 68.5854 47.6684C67.6721 47.6684 66.9539 47.3802 66.4307 46.7994C65.9076 46.2142 65.646 45.4162 65.646 44.4009C65.646 43.3014 65.943 42.4547 66.5371 41.8606Z" fill="white"/>
<path id="Vector_30" d="M74.4774 46.2142H73.1562V47.491H74.4774V46.2142Z" fill="white"/>
<path id="Vector_31" d="M76.6675 41.2133H81.2473V42.3172H78.002V43.7625H80.8483V44.8575H78.002V47.491H76.6675V41.2133Z" fill="white"/>
<path id="Vector_32" d="M83.2379 46.2142H81.9167V47.491H83.2379V46.2142Z" fill="white"/>
</g>
<defs>
<clipPath id="clip0_105_333">
<rect width="91.391" height="120" fill="white"/>
</clipPath>
</defs>
</svg>
